<svg width="20" height="20" viewBox="0 0 20 20" fill="none" xmlns="http://www.w3.org/2000/svg">
<path d="M17.4359 3.01493C17.3518 2.81077 17.1893 2.64825 16.9851 2.56409C16.8834 2.52159 16.775 2.5 16.6667 2.5H12.5C12.0392 2.5 11.6667 2.87333 11.6667 3.33333C11.6667 3.79333 12.0392 4.16667 12.5 4.16667H14.655L8.5775 10.2441C8.25167 10.57 8.25167 11.0967 8.5775 11.4225C8.74 11.585 8.95336 11.6667 9.1667 11.6667C9.38003 11.6667 9.59339 11.585 9.75589 11.4225L15.8334 5.34505V7.5C15.8334 7.96 16.2059 8.33333 16.6667 8.33333C17.1275 8.33333 17.5 7.96 17.5 7.5V3.33333C17.5 3.225 17.4784 3.1166 17.4359 3.01493Z" fill="#787879"/>
<path d="M14.1667 17.5H5.83333C3.715 17.5 2.5 16.285 2.5 14.1667V5.83333C2.5 3.715 3.715 2.5 5.83333 2.5H9.16667C9.6275 2.5 10 2.87333 10 3.33333C10 3.79333 9.6275 4.16667 9.16667 4.16667H5.83333C4.63417 4.16667 4.16667 4.63417 4.16667 5.83333V14.1667C4.16667 15.3658 4.63417 15.8333 5.83333 15.8333H14.1667C15.3658 15.8333 15.8333 15.3658 15.8333 14.1667V10.8333C15.8333 10.3733 16.2058 10 16.6667 10C17.1275 10 17.5 10.3733 17.5 10.8333V14.1667C17.5 16.285 16.285 17.5 14.1667 17.5Z" fill="#787879"/>
</svg>
