<svg width="17" height="17" viewBox="0 0 17 17" fill="none" xmlns="http://www.w3.org/2000/svg">
<path d="M4.8617 8.30479L2.19568 5.63878C2.13368 5.57678 2.08499 5.50349 2.05099 5.42149C1.98365 5.25883 1.98365 5.07472 2.05099 4.91205C2.08499 4.83005 2.13368 4.75677 2.19568 4.69477L4.8617 2.02875C5.12236 1.76809 5.54374 1.76809 5.80441 2.02875C6.06507 2.28942 6.06507 2.71079 5.80441 2.97146L4.27576 4.50011H11.9997C12.3684 4.50011 12.6664 4.79877 12.6664 5.16677C12.6664 5.53477 12.3684 5.83344 11.9997 5.83344H4.27576L5.80441 7.36208C6.06507 7.62275 6.06507 8.04413 5.80441 8.30479C5.67441 8.43479 5.50372 8.50011 5.33305 8.50011C5.16239 8.50011 4.9917 8.43479 4.8617 8.30479ZM15.2818 11.5787C15.2478 11.4967 15.1991 11.4234 15.1371 11.3614L12.4711 8.69542C12.2104 8.43475 11.789 8.43475 11.5284 8.69542C11.2677 8.95608 11.2677 9.37746 11.5284 9.63813L13.057 11.1668H5.33305C4.96439 11.1668 4.66639 11.4654 4.66639 11.8334C4.66639 12.2014 4.96439 12.5001 5.33305 12.5001H13.057L11.5284 14.0288C11.2677 14.2894 11.2677 14.7108 11.5284 14.9715C11.6584 15.1015 11.8291 15.1668 11.9997 15.1668C12.1704 15.1668 12.3411 15.1015 12.4711 14.9715L15.1371 12.3054C15.1991 12.2434 15.2478 12.1702 15.2818 12.0882C15.3491 11.9255 15.3491 11.7414 15.2818 11.5787Z" fill="white"/>
</svg>
