<svg width="20" height="20" viewBox="0 0 20 20" fill="none" xmlns="http://www.w3.org/2000/svg">
<path d="M13.4917 1.94189H6.50841C3.47508 1.94189 1.66675 3.75856 1.66675 6.79189V13.7669C1.66675 16.8002 3.47508 18.6086 6.50841 18.6086H13.4834C16.5167 18.6086 18.3251 16.8002 18.3251 13.7669V6.79189C18.3334 3.75856 16.5251 1.94189 13.4917 1.94189ZM9.64175 14.2669C9.64175 14.5169 9.51675 14.7419 9.30008 14.8752C9.18341 14.9502 9.05841 14.9836 8.92508 14.9836C8.81675 14.9836 8.70841 14.9586 8.60008 14.9086L5.68341 13.4502C5.26675 13.2336 5.00008 12.8086 5.00008 12.3336V9.57523C5.00008 9.32523 5.12508 9.10023 5.34175 8.9669C5.55841 8.83356 5.81675 8.82523 6.04175 8.93356L8.95841 10.3919C9.38341 10.6086 9.65008 11.0336 9.65008 11.5086V14.2669H9.64175ZM9.46675 9.80856L6.33341 8.11689C6.10841 7.99189 5.96675 7.75023 5.96675 7.47523C5.96675 7.20856 6.10841 6.95856 6.33341 6.83356L9.46675 5.14189C9.80008 4.96689 10.1917 4.96689 10.5251 5.14189L13.6584 6.83356C13.8834 6.95856 14.0251 7.20023 14.0251 7.47523C14.0251 7.75023 13.8834 7.99189 13.6584 8.11689L10.5251 9.80856C10.3584 9.90023 10.1751 9.9419 9.99175 9.9419C9.80841 9.9419 9.63341 9.90023 9.46675 9.80856ZM15.0001 12.3336C15.0001 12.8086 14.7334 13.2419 14.3084 13.4502L11.3917 14.9086C11.2917 14.9586 11.1834 14.9836 11.0667 14.9836C10.9334 14.9836 10.8084 14.9502 10.6917 14.8752C10.4751 14.7419 10.3501 14.5169 10.3501 14.2669V11.5086C10.3501 11.0336 10.6167 10.6002 11.0417 10.3919L13.9584 8.93356C14.1834 8.82523 14.4417 8.83356 14.6584 8.9669C14.8751 9.10023 15.0001 9.32523 15.0001 9.57523V12.3336Z" fill="#787879"/>
</svg>
