<svg width="17" height="17" viewBox="0 0 17 17" fill="none" xmlns="http://www.w3.org/2000/svg">
<path d="M14.4665 7H2.86654C2.75587 7 2.6665 7.08937 2.6665 7.20003V12.5C2.6665 13.8333 3.33317 14.5 4.6665 14.5H12.6665C13.9998 14.5 14.6665 13.8333 14.6665 12.5V7.20003C14.6665 7.08937 14.5771 7 14.4665 7ZM6.01318 12.5C5.64518 12.5 5.3431 12.2013 5.3431 11.8333C5.3431 11.4653 5.63851 11.1667 6.00651 11.1667H6.01318C6.38185 11.1667 6.67985 11.4653 6.67985 11.8333C6.67985 12.2013 6.38118 12.5 6.01318 12.5ZM6.01318 9.83333C5.64518 9.83333 5.3431 9.53467 5.3431 9.16667C5.3431 8.79867 5.63851 8.5 6.00651 8.5H6.01318C6.38185 8.5 6.67985 8.79867 6.67985 9.16667C6.67985 9.53467 6.38118 9.83333 6.01318 9.83333ZM8.67985 12.5C8.31185 12.5 8.00977 12.2013 8.00977 11.8333C8.00977 11.4653 8.30518 11.1667 8.67318 11.1667H8.67985C9.04852 11.1667 9.34652 11.4653 9.34652 11.8333C9.34652 12.2013 9.04785 12.5 8.67985 12.5ZM8.67985 9.83333C8.31185 9.83333 8.00977 9.53467 8.00977 9.16667C8.00977 8.79867 8.30518 8.5 8.67318 8.5H8.67985C9.04852 8.5 9.34652 8.79867 9.34652 9.16667C9.34652 9.53467 9.04785 9.83333 8.67985 9.83333ZM11.3465 12.5C10.9785 12.5 10.6764 12.2013 10.6764 11.8333C10.6764 11.4653 10.9718 11.1667 11.3398 11.1667H11.3465C11.7152 11.1667 12.0132 11.4653 12.0132 11.8333C12.0132 12.2013 11.7145 12.5 11.3465 12.5ZM11.3465 9.83333C10.9785 9.83333 10.6764 9.53467 10.6764 9.16667C10.6764 8.79867 10.9718 8.5 11.3398 8.5H11.3465C11.7152 8.5 12.0132 8.79867 12.0132 9.16667C12.0132 9.53467 11.7145 9.83333 11.3465 9.83333ZM14.6665 5.5V5.79997C14.6665 5.91063 14.5771 6 14.4665 6H2.86654C2.75587 6 2.6665 5.91063 2.6665 5.79997V5.5C2.6665 4.16667 3.33317 3.5 4.6665 3.5H5.49984V2.5C5.49984 2.22667 5.7265 2 5.99984 2C6.27317 2 6.49984 2.22667 6.49984 2.5V3.5H10.8332V2.5C10.8332 2.22667 11.0598 2 11.3332 2C11.6065 2 11.8332 2.22667 11.8332 2.5V3.5H12.6665C13.9998 3.5 14.6665 4.16667 14.6665 5.5Z" fill="white"/>
</svg>
