<svg width="16" height="16" viewBox="0 0 16 16" fill="none" xmlns="http://www.w3.org/2000/svg">
<path d="M8.33333 14H7.66667C7 14 6.66667 13.6667 6.66667 13V3C6.66667 2.33333 7 2 7.66667 2H8.33333C9 2 9.33333 2.33333 9.33333 3V13C9.33333 13.6667 9 14 8.33333 14ZM14 13V6.33333C14 5.66667 13.6667 5.33333 13 5.33333H12.3333C11.6667 5.33333 11.3333 5.66667 11.3333 6.33333V13C11.3333 13.6667 11.6667 14 12.3333 14H13C13.6667 14 14 13.6667 14 13ZM4.66667 13V9C4.66667 8.33333 4.33333 8 3.66667 8H3C2.33333 8 2 8.33333 2 9V13C2 13.6667 2.33333 14 3 14H3.66667C4.33333 14 4.66667 13.6667 4.66667 13Z" fill="#787879"/>
</svg>
