<svg width="20" height="20" viewBox="0 0 20 20" fill="none" xmlns="http://www.w3.org/2000/svg">
<path d="M6.25 15.0083C6.25 15.6167 6.43334 16.1666 6.775 16.6416C4.54167 16.5 2.5 15.6833 2.5 14.175V13.4417C3.375 14.125 4.66667 14.5833 6.25 14.7333V15.0083ZM6.28331 11.6167C6.27498 11.625 6.27502 11.6333 6.27502 11.6416C6.25836 11.725 6.25 11.8083 6.25 11.8917V13.4833C4.23333 13.25 2.5 12.45 2.5 11.0583V10.325C3.375 11.0167 4.67502 11.475 6.27502 11.6167H6.28331ZM9.53334 8.56669C8.26667 8.95836 7.27501 9.59998 6.72501 10.4C4.50834 10.2583 2.5 9.44169 2.5 7.94169V7.37498C3.59167 8.23331 5.34167 8.73332 7.5 8.73332C8.225 8.73332 8.90834 8.67502 9.53334 8.56669ZM12.5 7.37498V7.94169C12.5 8.01669 12.4917 8.08336 12.4833 8.15002C11.825 8.15002 11.2 8.20831 10.6167 8.30831C11.3667 8.08331 12 7.76665 12.5 7.37498ZM7.5 2.5C5 2.5 2.5 3.33333 2.5 4.99166C2.5 6.66666 5 7.48332 7.5 7.48332C10 7.48332 12.5 6.66666 12.5 4.99166C12.5 3.33333 10 2.5 7.5 2.5ZM12.5 15.6333C10.4083 15.6333 8.625 15.0834 7.5 14.1917V15.0083C7.5 16.6667 10 17.5 12.5 17.5C15 17.5 17.5 16.6667 17.5 15.0083V14.1917C16.375 15.0834 14.5917 15.6333 12.5 15.6333ZM12.5 9.40002C9.74167 9.40002 7.5 10.5167 7.5 11.8917C7.5 13.2667 9.74167 14.3833 12.5 14.3833C15.2583 14.3833 17.5 13.2667 17.5 11.8917C17.5 10.5167 15.2583 9.40002 12.5 9.40002Z" fill="#787879"/>
</svg>
