<svg width="16" height="16" viewBox="0 0 16 16" fill="none" xmlns="http://www.w3.org/2000/svg">
<path opacity="0.4" d="M12.6333 4.17334C11.7666 3.78001 10.8399 3.49333 9.87993 3.33333C9.75993 3.54 9.62658 3.82 9.53325 4.04C8.50658 3.89333 7.49326 3.89333 6.47992 4.04C6.38659 3.82 6.2466 3.54 6.13326 3.33333C5.1666 3.49333 4.23993 3.78001 3.37993 4.17334C1.63326 6.72001 1.15993 9.20666 1.39993 11.66C2.55993 12.4933 3.67993 13 4.77993 13.3333C5.0466 12.9733 5.29325 12.5867 5.49992 12.18C5.09992 12.0333 4.71993 11.8533 4.35993 11.64C4.45326 11.5733 4.5466 11.5 4.63326 11.4267C6.8266 12.42 9.21326 12.42 11.3799 11.4267C11.4733 11.5 11.5599 11.5733 11.6533 11.64C11.2933 11.8533 10.9132 12.0333 10.5132 12.18C10.7199 12.5867 10.9666 12.9733 11.2333 13.3333C12.3333 13 13.4599 12.4933 14.6133 11.66C14.9066 8.81999 14.1533 6.35334 12.6466 4.17334H12.6333Z" fill="white"/>
<path d="M6.98667 8.78001C6.98667 9.51334 6.45333 10.1133 5.78666 10.1133C5.12 10.1133 4.58667 9.51334 4.58667 8.78001C4.58667 8.04668 5.11333 7.44668 5.78666 7.44668C6.46 7.44668 7.00001 8.04668 6.98667 8.78001ZM10.2133 7.44668C9.54001 7.44668 9.01333 8.04668 9.01333 8.78001C9.01333 9.51334 9.55334 10.1133 10.2133 10.1133C10.8733 10.1133 11.4133 9.51334 11.4133 8.78001C11.4267 8.04668 10.88 7.44668 10.2133 7.44668Z" fill="white"/>
</svg>
