<svg width="20" height="20" viewBox="0 0 20 20" fill="none" xmlns="http://www.w3.org/2000/svg">
<path d="M15.7916 5.21663C14.7082 4.72497 13.5499 4.36663 12.3499 4.16663C12.1999 4.42496 12.0332 4.77496 11.9166 5.04996C10.6332 4.86662 9.36657 4.86662 8.0999 5.04996C7.98324 4.77496 7.80824 4.42496 7.66658 4.16663C6.45824 4.36663 5.29991 4.72497 4.22491 5.21663C2.04157 8.39997 1.44991 11.5083 1.74991 14.575C3.19991 15.6166 4.59991 16.25 5.97491 16.6666C6.30825 16.2166 6.61657 15.7333 6.8749 15.2249C6.3749 15.0416 5.89991 14.8166 5.44991 14.55C5.56658 14.4666 5.68324 14.375 5.79158 14.2833C8.53324 15.525 11.5166 15.525 14.2249 14.2833C14.3416 14.375 14.4499 14.4666 14.5666 14.55C14.1166 14.8166 13.6416 15.0416 13.1416 15.2249C13.3999 15.7333 13.7082 16.2166 14.0416 16.6666C15.4166 16.25 16.8249 15.6166 18.2666 14.575C18.6332 11.025 17.6916 7.94163 15.8082 5.21663H15.7916Z" fill="#787879"/>
<path d="M8.7334 10.975C8.7334 11.8917 8.06672 12.6417 7.23339 12.6417C6.40005 12.6417 5.7334 11.8917 5.7334 10.975C5.7334 10.0583 6.39172 9.30835 7.23339 9.30835C8.07505 9.30835 8.75007 10.0583 8.7334 10.975ZM12.7667 9.30835C11.9251 9.30835 11.2667 10.0583 11.2667 10.975C11.2667 11.8917 11.9417 12.6417 12.7667 12.6417C13.5917 12.6417 14.2667 11.8917 14.2667 10.975C14.2834 10.0583 13.6001 9.30835 12.7667 9.30835Z" fill="#171717"/>
</svg>
