<svg width="16" height="16" viewBox="0 0 16 16" fill="none" xmlns="http://www.w3.org/2000/svg">
<path opacity="0.4" d="M14.6667 8C14.6667 11.7433 11.5767 14.7693 7.81004 14.664C4.33204 14.5673 1.43338 11.668 1.33604 8.19002C1.23071 4.42335 4.25671 1.33333 8.00004 1.33333C8.88471 1.33333 9.72937 1.50335 10.498 1.82202C10.6047 1.86602 10.646 1.99199 10.5987 2.09733C10.3514 2.64533 10.2587 3.28933 10.3987 3.96533C10.6574 5.21666 11.7427 6.1893 13.014 6.3173C13.4267 6.35863 13.828 6.31934 14.2007 6.208C14.3107 6.17534 14.428 6.232 14.4567 6.34334C14.5934 6.87 14.6667 7.42733 14.6667 8Z" fill="#787879"/>
<path d="M15.02 2.31331L13.6867 0.979976C13.6407 0.933976 13.5853 0.897318 13.524 0.871984C13.402 0.821318 13.264 0.821318 13.142 0.871984C13.0807 0.897318 13.0253 0.933976 12.9793 0.979976L11.646 2.31331C11.4507 2.50864 11.4507 2.82533 11.646 3.02067C11.8413 3.216 12.158 3.216 12.3533 3.02067L12.8333 2.54069V4.66666C12.8333 4.94266 13.0573 5.16666 13.3333 5.16666C13.6093 5.16666 13.8333 4.94266 13.8333 4.66666V2.54069L14.3133 3.02067C14.4107 3.118 14.5387 3.16731 14.6667 3.16731C14.7947 3.16731 14.9227 3.11867 15.02 3.02067C15.2153 2.82467 15.2153 2.50864 15.02 2.31331Z" fill="#787879"/>
<path d="M9.98128 9.34465C9.98128 8.54332 9.43794 7.84602 8.65728 7.64869L7.58529 7.38265C7.41995 7.34132 7.27928 7.2487 7.17328 7.11337C7.07328 6.9867 7.01794 6.824 7.01794 6.65666C7.01794 6.244 7.35328 5.9087 7.76595 5.9087H8.23262C8.61395 5.9087 8.93328 6.19536 8.97661 6.57536C9.00728 6.85003 9.25462 7.05002 9.52929 7.01669C9.80395 6.98602 10.0013 6.7387 9.97061 6.46403C9.88061 5.6627 9.26062 5.04464 8.48462 4.93197V4.66667C8.48462 4.39067 8.26062 4.16667 7.98462 4.16667C7.70862 4.16667 7.48462 4.39067 7.48462 4.66667V4.93604C6.65462 5.07204 6.01794 5.78803 6.01794 6.65536C6.01794 7.04669 6.14928 7.42937 6.38595 7.72803C6.62328 8.03403 6.96195 8.25532 7.34195 8.35132L8.41395 8.61735C8.74795 8.70202 8.98128 9.00068 8.98128 9.34335C8.98128 9.54201 8.90328 9.72934 8.76128 9.87134C8.61928 10.0133 8.43195 10.0913 8.23329 10.0913H7.76661C7.38528 10.0913 7.06595 9.80465 7.02261 9.42465C6.99195 9.14998 6.74395 8.94866 6.46995 8.98332C6.19528 9.01399 5.99795 9.26131 6.02862 9.53597C6.11728 10.3273 6.72262 10.9414 7.48462 11.0647V11.3333C7.48462 11.6093 7.70862 11.8333 7.98462 11.8333C8.26062 11.8333 8.48462 11.6093 8.48462 11.3333V11.068C8.85462 11.014 9.19795 10.85 9.46795 10.58C9.79928 10.2487 9.98128 9.80998 9.98128 9.34465Z" fill="#787879"/>
</svg>
