<svg width="14" height="14" viewBox="0 0 14 14" fill="none" xmlns="http://www.w3.org/2000/svg">
<path d="M12.7267 6.01336C13.0934 6.62003 13.0934 7.38 12.7267 7.98667C11.9067 9.35334 10.0733 11.6667 6.99997 11.6667C6.50131 11.6667 6.032 11.6033 5.596 11.4933C5.44734 11.456 5.40059 11.2654 5.50925 11.1574L6.77325 9.89341C6.85058 9.81607 6.94664 9.83335 6.99997 9.83335C8.56264 9.83335 9.83331 8.56202 9.83331 7.00002C9.83331 6.94668 9.82534 6.84132 9.88067 6.78599L11.7086 4.95802C11.7933 4.87336 11.9359 4.88209 12.0099 4.97609C12.3032 5.34676 12.542 5.70203 12.7267 6.01336ZM13.3533 1.35337L1.35333 13.3534C1.25599 13.4507 1.12797 13.5 0.999975 13.5C0.871975 13.5 0.743955 13.4514 0.646622 13.3534C0.451289 13.158 0.451289 12.8413 0.646622 12.646L3.11667 10.176C2.27001 9.45529 1.65592 8.62402 1.27325 7.98602C0.906583 7.37935 0.906583 6.61938 1.27325 6.01271C2.09325 4.64604 3.92664 2.3327 6.99997 2.3327C8.21597 2.3327 9.23133 2.6973 10.0753 3.2173L12.6466 0.646012C12.842 0.450678 13.1586 0.450678 13.354 0.646012C13.5493 0.841345 13.5487 1.15804 13.3533 1.35337ZM4.67999 8.61265L5.4059 7.88673C5.2579 7.6234 5.16664 7.32402 5.16664 7.00002C5.16664 6.76668 5.21327 6.54669 5.29327 6.34002C5.41994 6.44669 5.5799 6.51336 5.7599 6.51336C6.17324 6.51336 6.51332 6.17328 6.51332 5.75994C6.51332 5.57994 6.44665 5.41998 6.33998 5.29331C6.54665 5.21331 6.76664 5.16668 6.99997 5.16668C7.32397 5.16668 7.62403 5.25794 7.88669 5.40594L8.61261 4.68003C8.15394 4.3587 7.59931 4.16668 6.99997 4.16668C5.43997 4.16668 4.16664 5.44002 4.16664 7.00002C4.16664 7.60002 4.35865 8.15398 4.67999 8.61265Z" fill="#787879"/>
</svg>
