<svg width="16" height="16" viewBox="0 0 16 16" fill="none" xmlns="http://www.w3.org/2000/svg">
<path d="M9.83336 7.99992C9.83336 9.01125 9.01136 9.83325 8.00003 9.83325C6.98869 9.83325 6.16669 9.01125 6.16669 7.99992C6.16669 7.76725 6.21464 7.54656 6.29397 7.34123C6.42331 7.44389 6.57935 7.51457 6.75735 7.51457C7.17535 7.51457 7.51468 7.17524 7.51468 6.75724C7.51468 6.57924 7.444 6.4232 7.34134 6.29386C7.54667 6.21453 7.76736 6.16659 8.00003 6.16659C9.01136 6.16659 9.83336 6.98859 9.83336 7.99992ZM13.7281 8.98462C12.9101 10.354 11.0727 12.6666 8.00003 12.6666C4.92736 12.6666 3.09 10.354 2.272 8.98462C1.90933 8.37795 1.90933 7.62188 2.272 7.01522C3.09 5.64588 4.92736 3.33325 8.00003 3.33325C11.0727 3.33325 12.9101 5.64588 13.7281 7.01522C14.0907 7.62188 14.0907 8.37795 13.7281 8.98462ZM10.8334 7.99992C10.8334 6.43792 9.56269 5.16659 8.00003 5.16659C6.43736 5.16659 5.16669 6.43792 5.16669 7.99992C5.16669 9.56192 6.43736 10.8333 8.00003 10.8333C9.56269 10.8333 10.8334 9.56192 10.8334 7.99992Z" fill="#FF57C4"/>
</svg>
