<svg width="16" height="16" viewBox="0 0 16 16" fill="none" xmlns="http://www.w3.org/2000/svg">
<path d="M7.33334 11.9999C7.17468 11.9999 6.98401 11.9286 6.85867 11.8013L4.19201 9.09327C3.93334 8.8306 3.93668 8.4086 4.19934 8.1506C4.46134 7.8926 4.88334 7.89526 5.14201 8.15792L7.33734 10.3873L13.5293 4.19593C13.79 3.93526 14.2113 3.93526 14.472 4.19593C14.7327 4.45593 14.7327 4.87859 14.472 5.13859L7.80534 11.8053C7.68001 11.9299 7.51001 11.9999 7.33334 11.9999ZM7.80468 9.13792L11.8047 5.13792C12.0653 4.87792 12.0653 4.45526 11.8047 4.19526C11.544 3.93459 11.1227 3.93459 10.862 4.19526L6.86201 8.19526C6.60134 8.45526 6.60134 8.87792 6.86201 9.13792C6.99201 9.26792 7.16268 9.33326 7.33334 9.33326C7.50401 9.33326 7.67468 9.26792 7.80468 9.13792ZM5.13468 11.8079C5.39734 11.5493 5.40001 11.1273 5.14201 10.8653L2.47534 8.15859C2.21668 7.89659 1.79468 7.89325 1.53268 8.15192C1.27001 8.41059 1.26734 8.83259 1.52534 9.09459L4.19201 11.8013C4.32201 11.9333 4.49468 11.9999 4.66668 11.9999C4.83534 11.9999 5.00468 11.9359 5.13468 11.8079Z" fill="#787879"/>
</svg>
