<svg width="16" height="16" viewBox="0 0 16 16" fill="none" xmlns="http://www.w3.org/2000/svg">
<path d="M13.0846 5.83472C12.882 6.47138 12.362 6.98808 11.724 7.18742C10.692 7.51009 9.71064 7.06742 9.21997 6.28809C9.1813 6.22675 9.18399 6.14943 9.21932 6.0861C9.50932 5.56877 9.67399 4.97141 9.67399 4.33341C9.67399 4.11208 9.65463 3.89607 9.61597 3.68473C9.6033 3.6154 9.62463 3.5434 9.67863 3.4974C10.0486 3.1834 10.5274 3.00008 11.0407 3.00008C12.4514 3.00008 13.5513 4.36738 13.0846 5.83472ZM12.0733 8.18677H10.7533C10.64 8.18677 10.5533 8.27339 10.5533 8.38672C10.5533 8.44005 10.5734 8.49344 10.6134 8.52677C10.62 8.53344 10.6266 8.54005 10.6333 8.54671C11.5666 9.44671 12 10.7334 12 12.0134C12 12.2601 11.9867 12.5001 11.9467 12.7201C11.94 12.7494 11.938 12.7741 11.938 12.8008C11.938 12.9141 12.0266 13.0001 12.1333 13.0001H13.1067C14.3267 13.0001 15 12.3335 15 11.1201C15 9.76678 14.2333 8.18677 12.0733 8.18677ZM6.00667 1.66675C4.53334 1.66675 3.34001 2.86008 3.34001 4.33341C3.34001 5.80675 4.53334 7.00008 6.00667 7.00008C7.47334 7.00008 8.67334 5.80675 8.67334 4.33341C8.67334 2.86008 7.47334 1.66675 6.00667 1.66675ZM7.33333 8.33341H4.66667C1.96 8.33341 1 10.3134 1 12.0134C1 13.5334 1.80667 14.3334 3.33333 14.3334H8.66667C10.1933 14.3334 11 13.5334 11 12.0134C11 10.3134 10.04 8.33341 7.33333 8.33341Z" fill="#787879"/>
</svg>
