<svg width="20" height="20" viewBox="0 0 20 20" fill="none" xmlns="http://www.w3.org/2000/svg">
<path d="M9.375 15.2084H7.5C6.58333 15.2084 5.83333 15.9584 5.83333 16.875V17.0834H5C4.65833 17.0834 4.375 17.3667 4.375 17.7084C4.375 18.05 4.65833 18.3334 5 18.3334H15C15.3417 18.3334 15.625 18.05 15.625 17.7084C15.625 17.3667 15.3417 17.0834 15 17.0834H14.1667V16.875C14.1667 15.9584 13.4167 15.2084 12.5 15.2084H10.625V13.3C10.4167 13.325 10.2083 13.3334 10 13.3334C9.79167 13.3334 9.58333 13.325 9.375 13.3V15.2084Z" fill="#787879"/>
<path d="M15.3999 9.70008C15.9499 9.49175 16.4332 9.15008 16.8166 8.76675C17.5916 7.90841 18.0999 6.88341 18.0999 5.68341C18.0999 4.48341 17.1582 3.54175 15.9582 3.54175H15.4916C14.9499 2.43341 13.8166 1.66675 12.4999 1.66675H7.4999C6.18324 1.66675 5.0499 2.43341 4.50824 3.54175H4.04157C2.84157 3.54175 1.8999 4.48341 1.8999 5.68341C1.8999 6.88341 2.40824 7.90841 3.18324 8.76675C3.56657 9.15008 4.0499 9.49175 4.5999 9.70008C5.46657 11.8334 7.5499 13.3334 9.9999 13.3334C12.4499 13.3334 14.5332 11.8334 15.3999 9.70008ZM12.3666 7.04175L11.8499 7.67508C11.7666 7.76675 11.7082 7.95008 11.7166 8.07508L11.7666 8.89175C11.7999 9.39175 11.4416 9.65008 10.9749 9.46675L10.2166 9.16675C10.0999 9.12508 9.8999 9.12508 9.78324 9.16675L9.0249 9.46675C8.55824 9.65008 8.1999 9.39175 8.23324 8.89175L8.28324 8.07508C8.29157 7.95008 8.23324 7.76675 8.1499 7.67508L7.63324 7.04175C7.30824 6.65841 7.4499 6.23341 7.93324 6.10841L8.7249 5.90841C8.8499 5.87508 8.9999 5.75841 9.06657 5.65008L9.50824 4.96675C9.78324 4.54175 10.2166 4.54175 10.4916 4.96675L10.9332 5.65008C10.9999 5.75841 11.1499 5.87508 11.2749 5.90841L12.0666 6.10841C12.5499 6.23341 12.6916 6.65841 12.3666 7.04175Z" fill="#787879"/>
</svg>
