<svg width="35" height="35" viewBox="0 0 35 35" fill="none" xmlns="http://www.w3.org/2000/svg">
<rect x="0.75" y="0.75" width="33.5" height="33.5" rx="16.75" stroke="#353945" stroke-width="1.5"/>
<path fill-rule="evenodd" clip-rule="evenodd" d="M11.9106 11.9107C12.236 11.5853 12.7637 11.5853 13.0891 11.9107L17.4998 16.3214L21.9106 11.9107C22.236 11.5853 22.7637 11.5853 23.0891 11.9107C23.4145 12.2361 23.4145 12.7638 23.0891 13.0892L18.6783 17.5L23.0891 21.9107C23.4145 22.2361 23.4145 22.7638 23.0891 23.0892C22.7637 23.4147 22.236 23.4147 21.9106 23.0892L17.4998 18.6785L13.0891 23.0892C12.7637 23.4147 12.236 23.4147 11.9106 23.0892C11.5851 22.7638 11.5851 22.2361 11.9106 21.9107L16.3213 17.5L11.9106 13.0892C11.5851 12.7638 11.5851 12.2361 11.9106 11.9107Z" fill="#777E90"/>
</svg>
