<svg width="14" height="11" viewBox="0 0 14 11" fill="none" xmlns="http://www.w3.org/2000/svg">
<path d="M11.6667 0.333328H5.00004C3.66671 0.333328 3.00004 0.999995 3.00004 2.33333V9C3.00004 9.73666 2.40271 10.3333 1.66671 10.3333H11.6667C13 10.3333 13.6667 9.66666 13.6667 8.33333V2.33333C13.6667 0.999995 13 0.333328 11.6667 0.333328ZM8.33337 7.38466C8.33337 7.79466 8.12798 8 7.71798 8H5.61544C5.20544 8 5.00004 7.79466 5.00004 7.38466V5.94866C5.00004 5.53866 5.20544 5.33333 5.61544 5.33333H7.71798C8.12798 5.33333 8.33337 5.53866 8.33337 5.94866V7.38466ZM11.6667 8.16666H10.3334C10.0574 8.16666 9.83337 7.94266 9.83337 7.66666C9.83337 7.39066 10.0574 7.16666 10.3334 7.16666H11.6667C11.9427 7.16666 12.1667 7.39066 12.1667 7.66666C12.1667 7.94266 11.9427 8.16666 11.6667 8.16666ZM11.6667 6.16666H10.3334C10.0574 6.16666 9.83337 5.94266 9.83337 5.66666C9.83337 5.39066 10.0574 5.16666 10.3334 5.16666H11.6667C11.9427 5.16666 12.1667 5.39066 12.1667 5.66666C12.1667 5.94266 11.9427 6.16666 11.6667 6.16666ZM11.6667 3.49999H5.50004C5.22404 3.49999 5.00004 3.276 5.00004 2.99999C5.00004 2.72399 5.22404 2.49999 5.50004 2.49999H11.6667C11.9427 2.49999 12.1667 2.72399 12.1667 2.99999C12.1667 3.276 11.9427 3.49999 11.6667 3.49999ZM1.16736 9.33266C0.706692 9.33332 0.333374 8.95999 0.333374 8.49932V4.33333C0.333374 3.59999 0.933374 2.99999 1.66671 2.99999H2.00004V8.49932C2.00004 8.95932 1.62736 9.33199 1.16736 9.33266Z" fill="#787879"/>
</svg>
