<svg width="100" height="100" viewBox="0 0 100 100" fill="none" xmlns="http://www.w3.org/2000/svg">
<path d="M92.7197 49.9626C92.7197 73.7828 73.2993 93.1555 49.4297 93.1555C25.5601 93.1555 6.1416 73.7828 6.1416 49.9626C6.1416 26.1424 25.5619 6.75659 49.4316 6.75659C73.3012 6.75659 92.7216 26.1367 92.7216 49.9626H92.7197Z" fill="#39393B"/>
<path d="M43.0305 15.5486H14.0473C10.0489 15.5486 6.80762 18.7832 6.80762 22.7733V51.6965C6.80762 55.6866 10.0489 58.9212 14.0473 58.9212H43.0305C47.0289 58.9212 50.2702 55.6866 50.2702 51.6965V22.7733C50.2702 18.7832 47.0289 15.5486 43.0305 15.5486Z" fill="#515153"/>
<path d="M13.747 21.1406C13.747 22.0207 13.0339 22.7267 12.1519 22.7267C11.27 22.7267 10.5625 22.0207 10.5625 21.1406C10.5625 20.2604 11.2756 19.5544 12.1519 19.5544C13.0283 19.5544 13.747 20.2661 13.747 21.1406Z" fill="#666666"/>
<path d="M46.5136 21.1406C46.5136 22.0207 45.8005 22.7267 44.9185 22.7267C44.0366 22.7267 43.3291 22.0207 43.3291 21.1406C43.3291 20.2604 44.0422 19.5544 44.9185 19.5544C45.7949 19.5544 46.5136 20.2661 46.5136 21.1406Z" fill="#666666"/>
<path d="M13.747 53.3276C13.747 54.2077 13.0339 54.9137 12.1519 54.9137C11.27 54.9137 10.5625 54.2077 10.5625 53.3276C10.5625 52.4474 11.2756 51.7415 12.1519 51.7415C13.0283 51.7415 13.747 52.4531 13.747 53.3276Z" fill="#666666"/>
<path d="M46.5136 53.3276C46.5136 54.2077 45.8005 54.9137 44.9185 54.9137C44.0366 54.9137 43.3291 54.2077 43.3291 53.3276C43.3291 52.4474 44.0422 51.7415 44.9185 51.7415C45.7949 51.7415 46.5136 52.4531 46.5136 53.3276Z" fill="#666666"/>
<path d="M43.6964 37.9888C43.6964 41.9963 42.1295 45.6424 39.5774 48.3502C39.3466 48.5956 39.0182 48.7285 38.6804 48.7285H18.3969C18.0591 48.7285 17.7307 48.5956 17.4999 48.3521C14.944 45.6442 13.3809 41.9982 13.3809 37.9907C13.3809 33.9832 14.9421 30.3315 17.4999 27.6218C17.7307 27.3764 18.0591 27.2454 18.3969 27.2454H38.6804C39.0182 27.2454 39.3466 27.3783 39.5774 27.6236C42.1276 30.3315 43.6964 33.9851 43.6964 37.9907V37.9888Z" fill="url(#paint0_linear_9367_8215)"/>
<path d="M25.0959 33.5149C25.0959 32.6586 24.4007 31.9644 23.5431 31.9644C22.6855 31.9644 21.9902 32.6586 21.9902 33.5149V37.1086C21.9902 37.9649 22.6855 38.6591 23.5431 38.6591C24.4007 38.6591 25.0959 37.9649 25.0959 37.1086V33.5149Z" fill="#6D6D6D"/>
<path d="M35.0851 33.5149V37.1086C35.0851 37.9644 34.3889 38.6591 33.5313 38.6591C32.6737 38.6591 31.9775 37.9644 31.9775 37.1086V33.5149C31.9775 32.6591 32.6737 31.9644 33.5313 31.9644C34.3889 31.9644 35.0851 32.6591 35.0851 33.5149Z" fill="#6D6D6D"/>
<path d="M30.5831 42.0805V43.4026C30.5831 43.6816 30.356 43.9082 30.0764 43.9082H26.9989C26.7192 43.9082 26.4922 43.6816 26.4922 43.4026V42.0805C26.4922 40.9532 27.4079 40.0393 28.5376 40.0393C29.6673 40.0393 30.5831 40.9532 30.5831 42.0805Z" fill="#6D6D6D"/>
<path d="M92.0533 30.3164C92.0533 33.8932 89.1372 36.8033 85.5455 36.8033H65.3276C61.2649 36.8033 57.9678 33.5055 57.9678 29.4587C57.9678 25.4119 61.1936 22.1853 65.1925 22.1142C66.6899 17.5879 70.976 14.4756 75.8062 14.4756C81.3964 14.4756 86.054 18.5168 86.8722 23.9587C89.8615 24.573 92.0533 27.2134 92.0533 30.3164Z" fill="url(#paint1_linear_9367_8215)"/>
<path d="M75.7234 29.7415C75.2017 29.2209 74.3535 29.2209 73.83 29.7415C73.5579 30.013 73.1169 30.013 72.8467 29.7415C72.5746 29.47 72.5746 29.0299 72.8467 28.7602C73.9125 27.6984 75.6446 27.6984 76.7086 28.7602C76.9807 29.0318 76.9807 29.4718 76.7086 29.7415C76.4365 30.0112 75.9955 30.013 75.7253 29.7415H75.7234Z" fill="#6D6D6D"/>
<path d="M72.8548 24.9663C72.8548 25.661 72.2918 26.2284 71.59 26.2284C70.8882 26.2284 70.3252 25.661 70.3252 24.9663C70.3252 24.2715 70.8882 23.6985 71.59 23.6985C72.2918 23.6985 72.8548 24.2659 72.8548 24.9663Z" fill="#6D6D6D"/>
<path d="M79.2307 24.9663C79.2307 25.661 78.6678 26.2284 77.966 26.2284C77.2641 26.2284 76.7012 25.661 76.7012 24.9663C76.7012 24.2715 77.2641 23.6985 77.966 23.6985C78.6678 23.6985 79.2307 24.2659 79.2307 24.9663Z" fill="#6D6D6D"/>
<path d="M69.4544 69.4681C69.4544 77.6404 62.7927 84.2883 54.6035 84.2883C54.2601 84.2883 53.9805 84.0093 53.9805 83.6666V83.4363C53.9805 83.1685 54.155 82.9325 54.4102 82.8464C58.1501 81.6085 60.8599 75.9812 60.8599 69.47C60.8599 62.9587 58.1483 57.3314 54.4102 56.0936C54.155 56.0074 53.9805 55.7696 53.9805 55.5037V55.2733C53.9805 54.9306 54.2601 54.6516 54.6035 54.6516C62.7927 54.6516 69.4544 61.2996 69.4544 69.4718V69.4681Z" fill="#515153"/>
<path d="M61.4843 69.4698C61.4843 77.3369 57.6505 83.7114 52.9198 83.7114L47.9338 83.7002C52.5689 83.5223 56.2882 77.2208 56.2882 69.4698C56.2882 61.7189 52.4544 55.2283 47.7236 55.2283H52.9179C57.6468 55.2283 61.4824 61.6028 61.4824 69.4698H61.4843Z" fill="white"/>
<path d="M62.1073 69.4681C62.1073 77.6647 57.9883 84.3314 52.9216 84.3314L47.9356 84.3258C47.5922 84.3258 47.3183 84.0524 47.3126 83.7097C47.307 83.3745 47.5735 83.0936 47.9113 83.0823C52.186 82.9138 55.6689 76.8146 55.6689 69.47C55.6689 62.1254 52.1034 55.8501 47.7236 55.8501C47.3802 55.8501 47.1006 55.5711 47.1006 55.2284C47.1006 54.8857 47.3802 54.6067 47.7236 54.6067H52.9216C57.9883 54.6067 62.1073 61.2734 62.1073 69.47V69.4681Z" fill="url(#paint2_linear_9367_8215)"/>
<path d="M47.7257 83.7114C52.4557 83.7114 56.2902 77.3352 56.2902 69.4698C56.2902 61.6044 52.4557 55.2283 47.7257 55.2283C42.9956 55.2283 39.1611 61.6044 39.1611 69.4698C39.1611 77.3352 42.9956 83.7114 47.7257 83.7114Z" fill="#5C5C5C"/>
<path d="M47.7257 84.4044C42.6196 84.4044 38.4668 77.704 38.4668 69.4681C38.4668 61.2321 42.6215 54.5317 47.7257 54.5317C52.8299 54.5317 56.9845 61.2321 56.9845 69.4681C56.9845 77.704 52.8299 84.4044 47.7257 84.4044ZM47.7257 55.9212C43.3871 55.9212 39.8573 61.998 39.8573 69.4681C39.8573 76.9381 43.3871 83.0149 47.7257 83.0149C52.0642 83.0149 55.594 76.9381 55.594 69.4681C55.594 61.998 52.0642 55.9212 47.7257 55.9212Z" fill="#6A6A6A"/>
<path d="M47.4206 60.6066C50.5188 60.6066 50.5188 66.1403 47.4206 66.1403H33.6524C32.1212 66.1403 30.8789 64.9025 30.8789 63.3725C30.8789 61.8444 32.1212 60.6047 33.6524 60.6047H47.4206V60.6066Z" fill="url(#paint3_linear_9367_8215)"/>
<path d="M47.4206 72.0019C50.5188 72.0019 50.5188 77.5356 47.4206 77.5356H33.6524C32.1212 77.5356 30.8789 76.2978 30.8789 74.7678C30.8789 73.2397 32.1212 72 33.6524 72H47.4206V72.0019Z" fill="url(#paint4_linear_9367_8215)"/>
<path d="M93.8662 83.4326C93.8662 82.7304 93.2826 82.1723 92.5808 82.1929C85.6695 82.3933 83.8267 79.5618 85.5381 72.9364C86.1742 70.4719 87.0468 67.0955 85.5287 64.2491C83.5208 60.4813 78.0056 58.794 72.2184 62.4925C70.2893 63.7248 68.6717 65.3034 67.1086 66.8334C66.6657 67.2678 66.5512 67.9719 66.9096 68.4776C67.3656 69.1218 68.2664 69.1836 68.8068 68.6555C70.2931 67.1985 71.8299 65.6948 73.562 64.588C78.0113 61.7435 81.9745 62.8802 83.3275 65.4176C84.3108 67.2622 83.8173 69.633 83.1249 72.3165C81.0306 80.427 83.9505 84.9382 92.6577 84.6798C93.3314 84.6592 93.8662 84.1068 93.8662 83.4345V83.4326Z" fill="#515153"/>
<path opacity="0.6" d="M7.0214 77.8988C6.32521 78.7809 6.48846 80.0693 7.37419 80.764C8.25804 81.4588 9.53972 81.3071 10.2359 80.4251C10.9321 79.543 10.7895 78.2528 9.90565 77.558C9.0218 76.8633 7.71948 77.0168 7.02328 77.9007L7.0214 77.8988Z" fill="#515153"/>
<path opacity="0.6" d="M5.0561 73.294C4.61323 73.8558 4.71832 74.6761 5.27941 75.118C5.84049 75.5599 6.65679 75.4644 7.10153 74.9026C7.54439 74.3408 7.45432 73.5188 6.89136 73.0768C6.32839 72.6349 5.49896 72.7322 5.0561 73.294Z" fill="#515153"/>
<path opacity="0.6" d="M76.1958 9.25844C76.0382 10.3708 76.8282 11.4008 77.9429 11.5581C79.0575 11.7154 80.0878 10.942 80.2454 9.8296C80.403 8.71724 79.6299 7.67417 78.5152 7.51686C77.4006 7.35956 76.3534 8.14608 76.1958 9.25844Z" fill="#515153"/>
<path opacity="0.6" d="M72.1786 6.26204C72.0791 6.96991 72.582 7.62534 73.2914 7.72646C74.0007 7.82571 74.6575 7.33321 74.7569 6.62534C74.8564 5.91747 74.3647 5.25268 73.6554 5.15343C72.9461 5.05418 72.2799 5.55418 72.1786 6.26204Z" fill="#515153"/>
<path opacity="0.6" d="M20.0106 11.4007C19.9111 12.1086 20.4141 12.764 21.1234 12.8651C21.8327 12.9663 22.4895 12.4719 22.589 11.764C22.6884 11.0561 22.1968 10.3914 21.4874 10.2921C20.7781 10.1929 20.1119 10.6929 20.0106 11.4007Z" fill="#515153"/>
<defs>
<linearGradient id="paint0_linear_9367_8215" x1="28.0817" y1="45.1405" x2="28.9376" y2="31.7189" gradientUnits="userSpaceOnUse">
<stop stop-color="#434344"/>
<stop offset="1" stop-color="#323233"/>
</linearGradient>
<linearGradient id="paint1_linear_9367_8215" x1="76.1008" y1="15.9681" x2="73.3947" y2="50.6525" gradientUnits="userSpaceOnUse">
<stop stop-color="#5E5F61"/>
<stop offset="0.5" stop-color="#424242"/>
</linearGradient>
<linearGradient id="paint2_linear_9367_8215" x1="47.1006" y1="69.4681" x2="62.1073" y2="69.4681" gradientUnits="userSpaceOnUse">
<stop stop-color="#5C5C5C"/>
<stop offset="1" stop-color="#3D3D3D"/>
</linearGradient>
<linearGradient id="paint3_linear_9367_8215" x1="30.8789" y1="63.3725" x2="49.7457" y2="63.3725" gradientUnits="userSpaceOnUse">
<stop stop-color="#444444"/>
<stop offset="1" stop-color="#676767"/>
</linearGradient>
<linearGradient id="paint4_linear_9367_8215" x1="30.8789" y1="74.7678" x2="49.7457" y2="74.7678" gradientUnits="userSpaceOnUse">
<stop stop-color="#444444"/>
<stop offset="1" stop-color="#676767"/>
</linearGradient>
</defs>
</svg>
