<svg width="16" height="16" viewBox="0 0 16 16" fill="none" xmlns="http://www.w3.org/2000/svg">
<path d="M9.44472 13.5013C9.14072 14.022 8.60205 14.3333 8.00339 14.3333C7.40472 14.3333 6.86538 14.022 6.56205 13.5013C6.50205 13.398 6.50205 13.2706 6.56138 13.1673C6.62071 13.064 6.73072 13 6.85072 13H9.15738C9.27671 13 9.38671 13.064 9.44671 13.1673C9.50671 13.2706 9.50472 13.3986 9.44472 13.5013ZM13.6 11.7933C13.5867 11.7733 12.3334 10.1866 12.3334 8.33329V5.99996C12.3334 5.90929 12.33 5.82063 12.3247 5.73196C12.3187 5.63863 12.256 5.58929 12.2294 5.57062C12.2054 5.55396 12.142 5.52262 12.06 5.54995C11.8374 5.62462 11.5987 5.66462 11.35 5.66595C10.216 5.67395 9.19538 4.81996 9.02738 3.69863C8.94272 3.13063 9.05805 2.59329 9.32738 2.14796C9.39671 2.03329 9.35338 1.88062 9.22538 1.84329C8.53471 1.63996 7.76605 1.60062 6.98271 1.78662C5.00805 2.25595 3.67338 4.11263 3.67338 6.14263V8.33329C3.67338 10.1866 2.42005 11.7733 2.40672 11.7933C2.32672 11.8933 2.31338 12.0266 2.36672 12.1466C2.42672 12.26 2.54005 12.3333 2.66672 12.3333H13.3334C13.4667 12.3333 13.5801 12.26 13.6401 12.1466C13.6934 12.0266 13.68 11.8933 13.6 11.7933ZM11.3334 1.99996C10.5967 1.99996 10 2.59662 10 3.33329C10 4.06996 10.5967 4.66662 11.3334 4.66662C12.07 4.66662 12.6667 4.06996 12.6667 3.33329C12.6667 2.59662 12.07 1.99996 11.3334 1.99996Z" fill="#787879"/>
</svg>
