<svg width="16" height="16" viewBox="0 0 16 16" fill="none" xmlns="http://www.w3.org/2000/svg">
<path d="M11.3333 2H5C3.66667 2 3 2.66667 3 4V4.83333H2C1.724 4.83333 1.5 5.05733 1.5 5.33333C1.5 5.60933 1.724 5.83333 2 5.83333H3V10.1667H2C1.724 10.1667 1.5 10.3907 1.5 10.6667C1.5 10.9427 1.724 11.1667 2 11.1667H3V12C3 13.3333 3.66667 14 5 14H11.3333C12.6667 14 13.3333 13.3333 13.3333 12V4C13.3333 2.66667 12.6667 2 11.3333 2ZM10.6667 7.33333C10.6667 7.778 10.4447 8 10 8H6.66667C6.222 8 6 7.778 6 7.33333V5.33333C6 4.88867 6.222 4.66667 6.66667 4.66667H10C10.4447 4.66667 10.6667 4.88867 10.6667 5.33333V7.33333Z" fill="#787879"/>
</svg>
