<svg width="303" height="78" viewBox="0 0 303 78" fill="none" xmlns="http://www.w3.org/2000/svg">
<path d="M0 50.6989V16.9202H12.8546V27.1094L10.762 24.207C11.7584 21.5722 13.3528 19.5961 15.5451 18.2788C17.7373 16.9614 20.368 16.3027 23.4372 16.3027V28.6532C22.8393 28.5709 22.3012 28.5091 21.8229 28.4679C21.3844 28.4268 20.9261 28.4062 20.4477 28.4062C18.4149 28.4062 16.7408 28.962 15.4255 30.0735C14.15 31.1439 13.5123 33.017 13.5123 35.693V50.6989H0Z" fill="url(#paint0_linear_10243_27303)"/>
<path d="M45.247 50.6989V44.7089L44.2904 43.1033V31.7408C44.2904 30.0941 43.7921 28.8385 42.7956 27.9739C41.839 27.1094 40.2646 26.6771 38.0723 26.6771C36.5975 26.6771 35.1028 26.9241 33.5882 27.4181C32.0735 27.871 30.7781 28.5091 29.7019 29.3325L25.3971 20.1313C27.3104 18.8963 29.6023 17.9494 32.2728 17.2907C34.9434 16.632 37.5542 16.3027 40.1052 16.3027C45.7253 16.3027 50.0699 17.5995 53.1391 20.1931C56.2481 22.7867 57.8026 26.9035 57.8026 32.5436V50.6989H45.247ZM35.9797 51.3164C33.3092 51.3164 31.0771 50.843 29.2834 49.8961C27.4897 48.9492 26.1345 47.6936 25.2178 46.1292C24.301 44.5236 23.8426 42.7534 23.8426 40.8185C23.8426 38.6365 24.3807 36.784 25.4569 35.2607C26.5331 33.7375 28.1673 32.5848 30.3596 31.8026C32.5917 31.0204 35.4018 30.6293 38.7898 30.6293H45.6057V37.3603H40.9422C39.5073 37.3603 38.451 37.6073 37.7734 38.1013C37.1356 38.5542 36.8168 39.2541 36.8168 40.2009C36.8168 40.9831 37.0958 41.6418 37.6538 42.177C38.2517 42.671 39.0489 42.918 40.0454 42.918C40.9621 42.918 41.7992 42.671 42.5565 42.177C43.3537 41.6418 43.9316 40.8185 44.2904 39.7069L46.0242 43.8443C45.5061 46.3556 44.4099 48.2288 42.7359 49.4638C41.0618 50.6989 38.8097 51.3164 35.9797 51.3164Z" fill="url(#paint1_linear_10243_27303)"/>
<path d="M63.6423 50.6989V16.9202H77.1545V50.6989H63.6423ZM70.3984 14.2031C67.9271 14.2031 65.9541 13.5238 64.4793 12.1653C63.0045 10.8067 62.2671 9.1188 62.2671 7.10155C62.2671 5.08429 63.0045 3.39639 64.4793 2.03783C65.9541 0.679278 67.9271 0 70.3984 0C72.8697 0 74.8427 0.63811 76.3175 1.91433C77.7923 3.19055 78.5297 4.83728 78.5297 6.85454C78.5297 8.99529 77.7923 10.7655 76.3175 12.1653C74.8427 13.5238 72.8697 14.2031 70.3984 14.2031Z" fill="url(#paint2_linear_10243_27303)"/>
<path d="M105.863 16.3027C108.375 16.3027 110.646 16.8379 112.679 17.9082C114.712 18.9375 116.306 20.5636 117.462 22.7867C118.658 25.0098 119.256 27.8916 119.256 31.4321V50.6989H105.744V33.8404C105.744 31.7408 105.385 30.2588 104.668 29.3942C103.95 28.4885 102.974 28.0357 101.738 28.0357C100.821 28.0357 99.9642 28.2621 99.1671 28.7149C98.4097 29.1266 97.7919 29.8265 97.3136 30.8145C96.8752 31.8026 96.6559 33.1405 96.6559 34.8284V50.6989H83.1437V16.9202H95.9983V26.8006L93.4273 23.96C94.7028 21.4076 96.4168 19.4932 98.5692 18.217C100.761 16.9408 103.193 16.3027 105.863 16.3027Z" fill="url(#paint3_linear_10243_27303)"/>
<path d="M140.729 51.3164C137.899 51.3164 135.547 50.6989 133.674 49.4638C131.84 48.1876 130.485 46.2733 129.608 43.7208C128.731 41.1272 128.293 37.8337 128.293 33.8404C128.293 29.7647 128.691 26.4507 129.488 23.8982C130.325 21.3046 131.661 19.3903 133.494 18.1553C135.328 16.9202 137.739 16.3027 140.729 16.3027C143.599 16.3027 146.229 17.0231 148.621 18.464C151.012 19.8637 152.926 21.881 154.361 24.5158C155.795 27.1094 156.513 30.2176 156.513 33.8404C156.513 37.4632 155.795 40.592 154.361 43.2268C152.926 45.8204 151.012 47.8171 148.621 49.2168C146.229 50.6165 143.599 51.3164 140.729 51.3164ZM118.906 62.6789V16.9202H131.76V21.4899L131.82 33.8404L132.418 46.1909V62.6789H118.906ZM137.5 40.4479C138.497 40.4479 139.393 40.2009 140.191 39.7069C140.988 39.2129 141.626 38.4719 142.104 37.4838C142.582 36.4958 142.821 35.2813 142.821 33.8404C142.821 32.3583 142.582 31.1233 142.104 30.1353C141.626 29.1472 140.988 28.4062 140.191 27.9122C139.393 27.4181 138.497 27.1711 137.5 27.1711C136.504 27.1711 135.607 27.4181 134.81 27.9122C134.012 28.4062 133.375 29.1472 132.896 30.1353C132.418 31.1233 132.179 32.3583 132.179 33.8404C132.179 35.2813 132.418 36.4958 132.896 37.4838C133.375 38.4719 134.012 39.2129 134.81 39.7069C135.607 40.2009 136.504 40.4479 137.5 40.4479Z" fill="url(#paint4_linear_10243_27303)"/>
<path d="M174.401 51.3164C171.811 51.3164 169.459 50.7812 167.346 49.7108C165.274 48.5993 163.639 46.8908 162.444 44.5854C161.248 42.2388 160.65 39.2335 160.65 35.5695V16.9202H174.162V33.1611C174.162 35.5489 174.541 37.2162 175.298 38.1631C176.056 39.11 177.092 39.5834 178.407 39.5834C179.204 39.5834 179.942 39.3776 180.619 38.9659C181.337 38.513 181.915 37.7926 182.353 36.8045C182.792 35.7753 183.011 34.4374 183.011 32.7906V16.9202H196.523V50.6989H183.669V40.942L186.24 43.5973C185.084 46.2321 183.429 48.1876 181.277 49.4638C179.165 50.6989 176.873 51.3164 174.401 51.3164Z" fill="url(#paint5_linear_10243_27303)"/>
<path d="M245.804 16.3027C248.275 16.3027 250.487 16.8379 252.44 17.9082C254.433 18.9375 255.988 20.5636 257.104 22.7867C258.26 25.0098 258.838 27.8916 258.838 31.4321V50.6989H245.325V33.8404C245.325 31.7408 244.986 30.2588 244.309 29.3942C243.631 28.4885 242.754 28.0357 241.678 28.0357C240.881 28.0357 240.163 28.2415 239.526 28.6532C238.888 29.0649 238.37 29.7236 237.971 30.6293C237.613 31.4938 237.433 32.6877 237.433 34.2109V50.6989H223.921V33.8404C223.921 31.7408 223.602 30.2588 222.964 29.3942C222.327 28.4885 221.43 28.0357 220.274 28.0357C219.477 28.0357 218.759 28.2415 218.121 28.6532C217.484 29.0649 216.966 29.7236 216.567 30.6293C216.208 31.4938 216.029 32.6877 216.029 34.2109V50.6989H202.517V16.9202H215.371V26.6154L212.74 23.8982C213.976 21.3458 215.63 19.4521 217.703 18.217C219.776 16.9408 222.087 16.3027 224.638 16.3027C227.508 16.3027 230.039 17.0849 232.232 18.6493C234.464 20.1725 235.958 22.6014 236.716 25.9361L232.59 25.2568C233.786 22.4574 235.52 20.2754 237.792 18.711C240.104 17.1055 242.774 16.3027 245.804 16.3027Z" fill="url(#paint6_linear_10243_27303)"/>
<path d="M286.522 51.3164C283.692 51.3164 281.34 50.6989 279.467 49.4638C277.633 48.1876 276.278 46.2733 275.401 43.7208C274.524 41.1272 274.086 37.8337 274.086 33.8404C274.086 29.7647 274.485 26.4507 275.282 23.8982C276.119 21.3046 277.454 19.3903 279.288 18.1553C281.121 16.9202 283.533 16.3027 286.522 16.3027C289.392 16.3027 292.023 17.0231 294.414 18.464C296.806 19.8637 298.719 21.881 300.154 24.5158C301.589 27.1094 302.306 30.2176 302.306 33.8404C302.306 37.4632 301.589 40.592 300.154 43.2268C298.719 45.8204 296.806 47.8171 294.414 49.2168C292.023 50.6165 289.392 51.3164 286.522 51.3164ZM264.699 62.6789V16.9202H277.554V21.4899L277.613 33.8404L278.211 46.1909V62.6789H264.699ZM283.293 40.4479C284.29 40.4479 285.187 40.2009 285.984 39.7069C286.781 39.2129 287.419 38.4719 287.897 37.4838C288.375 36.4958 288.615 35.2813 288.615 33.8404C288.615 32.3583 288.375 31.1233 287.897 30.1353C287.419 29.1472 286.781 28.4062 285.984 27.9122C285.187 27.4181 284.29 27.1711 283.293 27.1711C282.297 27.1711 281.4 27.4181 280.603 27.9122C279.806 28.4062 279.168 29.1472 278.69 30.1353C278.211 31.1233 277.972 32.3583 277.972 33.8404C277.972 35.2813 278.211 36.4958 278.69 37.4838C279.168 38.4719 279.806 39.2129 280.603 39.7069C281.4 40.2009 282.297 40.4479 283.293 40.4479Z" fill="url(#paint7_linear_10243_27303)"/>
<path d="M111.602 14.4188L125.093 9.60042L120.234 33.3664L128.141 30.547L115.275 76.9962L117.373 43.7835L108.902 47.3223L111.602 14.4188Z" fill="black"/>
<defs>
<linearGradient id="paint0_linear_10243_27303" x1="-29.6987" y1="11.0935" x2="302.767" y2="59.5171" gradientUnits="userSpaceOnUse">
<stop stop-color="white"/>
<stop offset="1" stop-color="white"/>
</linearGradient>
<linearGradient id="paint1_linear_10243_27303" x1="-29.6987" y1="11.0935" x2="302.767" y2="59.5171" gradientUnits="userSpaceOnUse">
<stop stop-color="white"/>
<stop offset="1" stop-color="white"/>
</linearGradient>
<linearGradient id="paint2_linear_10243_27303" x1="-29.6987" y1="11.0935" x2="302.767" y2="59.5171" gradientUnits="userSpaceOnUse">
<stop stop-color="white"/>
<stop offset="1" stop-color="white"/>
</linearGradient>
<linearGradient id="paint3_linear_10243_27303" x1="-29.6987" y1="11.0935" x2="302.767" y2="59.5171" gradientUnits="userSpaceOnUse">
<stop stop-color="white"/>
<stop offset="1" stop-color="white"/>
</linearGradient>
<linearGradient id="paint4_linear_10243_27303" x1="-29.6987" y1="11.0935" x2="302.767" y2="59.5171" gradientUnits="userSpaceOnUse">
<stop stop-color="white"/>
<stop offset="1" stop-color="white"/>
</linearGradient>
<linearGradient id="paint5_linear_10243_27303" x1="-29.6987" y1="11.0935" x2="302.767" y2="59.5171" gradientUnits="userSpaceOnUse">
<stop stop-color="white"/>
<stop offset="1" stop-color="white"/>
</linearGradient>
<linearGradient id="paint6_linear_10243_27303" x1="-29.6987" y1="11.0935" x2="302.767" y2="59.5171" gradientUnits="userSpaceOnUse">
<stop stop-color="white"/>
<stop offset="1" stop-color="white"/>
</linearGradient>
<linearGradient id="paint7_linear_10243_27303" x1="-29.6987" y1="11.0935" x2="302.767" y2="59.5171" gradientUnits="userSpaceOnUse">
<stop stop-color="white"/>
<stop offset="1" stop-color="white"/>
</linearGradient>
</defs>
</svg>
