<svg width="20" height="20" viewBox="0 0 20 20" fill="none" xmlns="http://www.w3.org/2000/svg">
<path d="M10.0054 4.19756C10.5519 3.64557 11.0718 3.13671 11.5712 2.60824C11.779 2.38792 11.9774 2.34793 12.2636 2.44516C14.1336 3.08261 16.0091 3.70359 17.8814 4.3332C18.4193 4.51432 18.4695 4.72837 18.0727 5.12825C17.5607 5.64338 17.0464 6.15695 16.5179 6.68541C17.0534 7.2225 17.5678 7.73685 18.0798 8.25355C18.4632 8.6401 18.4154 8.85337 17.9042 9.02586C16.02 9.66096 14.1336 10.289 12.251 10.9304C11.9844 11.0213 11.7892 10.9931 11.5908 10.7806C11.0859 10.2412 10.5637 9.7182 9.99524 9.13485C9.43855 9.70957 8.91792 10.2333 8.41455 10.7728C8.21775 10.9837 8.02408 11.0205 7.75515 10.9288C5.86005 10.2835 3.96103 9.65076 2.06437 9.01096C1.59863 8.85415 1.54531 8.63147 1.88952 8.28256C2.41014 7.75567 2.93625 7.23504 3.4851 6.68698C2.95664 6.15695 2.44386 5.64417 1.93186 5.12982C1.5312 4.72759 1.57824 4.51902 2.1169 4.33712C3.98769 3.70673 5.86397 3.08653 7.73241 2.44594C8.04055 2.34009 8.24049 2.40909 8.45376 2.63255C8.94694 3.14925 9.45893 3.64871 10.0054 4.19677V4.19756ZM14.967 6.69404C14.7679 6.61877 14.6605 6.57486 14.5515 6.53801C13.1464 6.06678 11.7445 5.58771 10.334 5.13452C10.1309 5.06944 9.87135 5.06787 9.66828 5.13295C8.25774 5.58693 6.85582 6.066 5.45155 6.53801C5.33786 6.57643 5.22809 6.62739 5.04932 6.69952C6.69665 7.25151 8.27263 7.78154 9.85097 8.30373C9.94114 8.33353 10.058 8.33431 10.1473 8.30373C11.7257 7.78076 13.3017 7.25073 14.9662 6.69325L14.967 6.69404Z" fill="#787879"/>
<path fill-rule="evenodd" clip-rule="evenodd" d="M9.62114 17.0642L9.62114 11.0497V11.0489L9.5247 10.9736C9.41628 11.0945 9.31398 11.2133 9.21203 11.3317C9.08912 11.4745 8.96671 11.6167 8.8347 11.7611C8.48814 12.1406 8.07729 12.2151 7.5943 12.0489C6.66472 11.7284 5.73201 11.4167 4.79914 11.105C4.58638 11.0339 4.37361 10.9628 4.16086 10.8916C4.05415 10.8562 3.94647 10.8247 3.82771 10.79C3.76234 10.7709 3.69362 10.7508 3.61985 10.7285C3.61985 11.16 3.62055 11.5397 3.62121 11.8959C3.62286 12.7898 3.62423 13.5351 3.61358 14.575C3.61044 14.9357 3.74452 15.1074 4.08481 15.2188C5.3183 15.6216 6.54826 16.0351 7.77829 16.4486C8.28401 16.6186 8.78974 16.7886 9.29574 16.9578C9.32689 16.9683 9.35601 16.9786 9.38493 16.9888C9.45573 17.0139 9.5254 17.0385 9.62114 17.0642ZM10.804 11.2871C10.7191 11.2012 10.6291 11.1103 10.533 11.0108H10.5322L10.5322 17.0144C10.5593 17.0096 10.5833 17.0061 10.6048 17.0029C10.6468 16.9967 10.6799 16.9918 10.7109 16.9815C11.2446 16.8027 11.7781 16.6236 12.3117 16.4444C13.6127 16.0077 14.9137 15.5709 16.2159 15.1389C16.4911 15.048 16.5593 14.8661 16.5585 14.6042C16.5557 13.754 16.5554 13.1573 16.5551 12.5071C16.555 12.0834 16.5548 11.637 16.5538 11.0829C16.5538 11.0278 16.5416 10.9724 16.5278 10.9103C16.521 10.8795 16.5138 10.8472 16.5076 10.8124C16.1128 10.9455 15.7205 11.0767 15.3302 11.2073C14.4378 11.5058 13.5559 11.8009 12.6782 12.1069C12.1262 12.299 11.6652 12.2316 11.2708 11.7784C11.1289 11.6155 10.9768 11.4617 10.804 11.2871Z" fill="#787879"/>
</svg>
