<svg width="303" height="78" viewBox="0 0 303 78" fill="none" xmlns="http://www.w3.org/2000/svg">
<path d="M0.244629 50.766V16.9873H13.0992V27.1765L11.0066 24.2741C12.0031 21.6394 13.5974 19.6633 15.7897 18.3459C17.9819 17.0285 20.6127 16.3698 23.6818 16.3698V28.7203C23.0839 28.638 22.5458 28.5762 22.0675 28.5351C21.6291 28.4939 21.1707 28.4733 20.6924 28.4733C18.6596 28.4733 16.9855 29.0291 15.6701 30.1406C14.3946 31.211 13.7569 33.0842 13.7569 35.7601V50.766H0.244629Z" fill="url(#paint0_linear_10382_10623)"/>
<path d="M45.4916 50.766V44.776L44.535 43.1704V31.808C44.535 30.1612 44.0368 28.9056 43.0403 28.0411C42.0837 27.1765 40.5092 26.7442 38.317 26.7442C36.8422 26.7442 35.3475 26.9913 33.8328 27.4853C32.3182 27.9381 31.0227 28.5762 29.9465 29.3996L25.6418 20.1985C27.555 18.9634 29.8469 18.0166 32.5175 17.3579C35.188 16.6992 37.7988 16.3698 40.3498 16.3698C45.9699 16.3698 50.3146 17.6666 53.3837 20.2602C56.4927 22.8538 58.0472 26.9707 58.0472 32.6107V50.766H45.4916ZM36.2244 51.3835C33.5538 51.3835 31.3217 50.9101 29.528 49.9632C27.7344 49.0163 26.3791 47.7607 25.4624 46.1963C24.5456 44.5907 24.0872 42.8205 24.0872 40.8856C24.0872 38.7037 24.6253 36.8511 25.7015 35.3279C26.7777 33.8046 28.412 32.6519 30.6042 31.8697C32.8363 31.0875 35.6464 30.6964 39.0344 30.6964H45.8503V37.4274H41.1868C39.7519 37.4274 38.6956 37.6745 38.018 38.1685C37.3803 38.6213 37.0614 39.3212 37.0614 40.2681C37.0614 41.0503 37.3404 41.709 37.8984 42.2441C38.4963 42.7382 39.2935 42.9852 40.29 42.9852C41.2067 42.9852 42.0438 42.7382 42.8011 42.2441C43.5983 41.709 44.1763 40.8856 44.535 39.774L46.2689 43.9115C45.7507 46.4227 44.6546 48.2959 42.9805 49.531C41.3064 50.766 39.0544 51.3835 36.2244 51.3835Z" fill="url(#paint1_linear_10382_10623)"/>
<path d="M63.8869 50.766V16.9873H77.3992V50.766H63.8869ZM70.643 14.2702C68.1718 14.2702 66.1987 13.591 64.724 12.2324C63.2492 10.8738 62.5118 9.18594 62.5118 7.16868C62.5118 5.15143 63.2492 3.46353 64.724 2.10497C66.1987 0.746417 68.1718 0.0671387 70.643 0.0671387C73.1143 0.0671387 75.0873 0.705249 76.5621 1.98147C78.0369 3.25769 78.7743 4.90442 78.7743 6.92167C78.7743 9.06243 78.0369 10.8327 76.5621 12.2324C75.0873 13.591 73.1143 14.2702 70.643 14.2702Z" fill="url(#paint2_linear_10382_10623)"/>
<path d="M106.108 16.3698C108.619 16.3698 110.891 16.905 112.924 17.9754C114.957 19.0046 116.551 20.6307 117.707 22.8538C118.903 25.0769 119.501 27.9587 119.501 31.4992V50.766H105.988V33.9076C105.988 31.808 105.63 30.3259 104.912 29.4614C104.195 28.5557 103.218 28.1028 101.983 28.1028C101.066 28.1028 100.209 28.3292 99.4117 28.7821C98.6544 29.1938 98.0365 29.8936 97.5582 30.8817C97.1198 31.8697 96.9006 33.2077 96.9006 34.8956V50.766H83.3883V16.9873H96.2429V26.8678L93.672 24.0271C94.9475 21.4747 96.6614 19.5604 98.8138 18.2841C101.006 17.0079 103.437 16.3698 106.108 16.3698Z" fill="url(#paint3_linear_10382_10623)"/>
<path d="M140.973 51.3835C138.143 51.3835 135.792 50.766 133.918 49.531C132.085 48.2547 130.729 46.3404 129.853 43.788C128.976 41.1944 128.537 37.9009 128.537 33.9076C128.537 29.8319 128.936 26.5178 129.733 23.9654C130.57 21.3718 131.905 19.4574 133.739 18.2224C135.572 16.9873 137.984 16.3698 140.973 16.3698C143.843 16.3698 146.474 17.0903 148.865 18.5312C151.257 19.9309 153.17 21.9481 154.605 24.5829C156.04 27.1765 156.758 30.2847 156.758 33.9076C156.758 37.5304 156.04 40.6592 154.605 43.2939C153.17 45.8876 151.257 47.8842 148.865 49.2839C146.474 50.6837 143.843 51.3835 140.973 51.3835ZM119.15 62.746V16.9873H132.005V21.557L132.065 33.9076L132.663 46.2581V62.746H119.15ZM137.745 40.5151C138.741 40.5151 139.638 40.2681 140.435 39.774C141.232 39.28 141.87 38.539 142.348 37.5509C142.827 36.5629 143.066 35.3484 143.066 33.9076C143.066 32.4255 142.827 31.1904 142.348 30.2024C141.87 29.2144 141.232 28.4733 140.435 27.9793C139.638 27.4853 138.741 27.2383 137.745 27.2383C136.748 27.2383 135.851 27.4853 135.054 27.9793C134.257 28.4733 133.619 29.2144 133.141 30.2024C132.663 31.1904 132.424 32.4255 132.424 33.9076C132.424 35.3484 132.663 36.5629 133.141 37.5509C133.619 38.539 134.257 39.28 135.054 39.774C135.851 40.2681 136.748 40.5151 137.745 40.5151Z" fill="url(#paint4_linear_10382_10623)"/>
<path d="M174.646 51.3835C172.055 51.3835 169.703 50.8483 167.591 49.778C165.518 48.6664 163.884 46.9579 162.688 44.6525C161.493 42.3059 160.895 39.3006 160.895 35.6366V16.9873H174.407V33.2283C174.407 35.616 174.786 37.2834 175.543 38.2302C176.3 39.1771 177.337 39.6505 178.652 39.6505C179.449 39.6505 180.186 39.4447 180.864 39.033C181.582 38.5802 182.159 37.8597 182.598 36.8717C183.036 35.8425 183.256 34.5045 183.256 32.8578V16.9873H196.768V50.766H183.913V41.0091L186.484 43.6645C185.328 46.2992 183.674 48.2547 181.522 49.531C179.409 50.766 177.117 51.3835 174.646 51.3835Z" fill="url(#paint5_linear_10382_10623)"/>
<path d="M246.048 16.3698C248.519 16.3698 250.732 16.905 252.685 17.9754C254.678 19.0046 256.232 20.6307 257.348 22.8538C258.504 25.0769 259.082 27.9587 259.082 31.4992V50.766H245.57V33.9076C245.57 31.808 245.231 30.3259 244.553 29.4614C243.876 28.5557 242.999 28.1028 241.923 28.1028C241.126 28.1028 240.408 28.3087 239.77 28.7203C239.133 29.132 238.614 29.7907 238.216 30.6964C237.857 31.561 237.678 32.7548 237.678 34.2781V50.766H224.166V33.9076C224.166 31.808 223.847 30.3259 223.209 29.4614C222.571 28.5557 221.674 28.1028 220.518 28.1028C219.721 28.1028 219.004 28.3087 218.366 28.7203C217.728 29.132 217.21 29.7907 216.812 30.6964C216.453 31.561 216.273 32.7548 216.273 34.2781V50.766H202.761V16.9873H215.616V26.6825L212.985 23.9654C214.221 21.4129 215.875 19.5192 217.948 18.2841C220.02 17.0079 222.332 16.3698 224.883 16.3698C227.753 16.3698 230.284 17.152 232.476 18.7164C234.708 20.2396 236.203 22.6686 236.96 26.0032L232.835 25.3239C234.031 22.5245 235.765 20.3426 238.037 18.7782C240.348 17.1726 243.019 16.3698 246.048 16.3698Z" fill="url(#paint6_linear_10382_10623)"/>
<path d="M286.767 51.3835C283.937 51.3835 281.585 50.766 279.712 49.531C277.878 48.2547 276.523 46.3404 275.646 43.788C274.769 41.1944 274.331 37.9009 274.331 33.9076C274.331 29.8319 274.729 26.5178 275.526 23.9654C276.363 21.3718 277.699 19.4574 279.532 18.2224C281.366 16.9873 283.777 16.3698 286.767 16.3698C289.637 16.3698 292.267 17.0903 294.659 18.5312C297.05 19.9309 298.964 21.9481 300.398 24.5829C301.833 27.1765 302.551 30.2847 302.551 33.9076C302.551 37.5304 301.833 40.6592 300.398 43.2939C298.964 45.8876 297.05 47.8842 294.659 49.2839C292.267 50.6837 289.637 51.3835 286.767 51.3835ZM264.944 62.746V16.9873H277.798V21.557L277.858 33.9076L278.456 46.2581V62.746H264.944ZM283.538 40.5151C284.535 40.5151 285.431 40.2681 286.229 39.774C287.026 39.28 287.663 38.539 288.142 37.5509C288.62 36.5629 288.859 35.3484 288.859 33.9076C288.859 32.4255 288.62 31.1904 288.142 30.2024C287.663 29.2144 287.026 28.4733 286.229 27.9793C285.431 27.4853 284.535 27.2383 283.538 27.2383C282.542 27.2383 281.645 27.4853 280.848 27.9793C280.05 28.4733 279.413 29.2144 278.934 30.2024C278.456 31.1904 278.217 32.4255 278.217 33.9076C278.217 35.3484 278.456 36.5629 278.934 37.5509C279.413 38.539 280.05 39.28 280.848 39.774C281.645 40.2681 282.542 40.5151 283.538 40.5151Z" fill="url(#paint7_linear_10382_10623)"/>
<path d="M111.846 14.486L125.338 9.66756L120.478 33.4336L128.385 30.6142L115.52 77.0634L117.617 43.8507L109.147 47.3894L111.846 14.486Z" fill="black"/>
<defs>
<linearGradient id="paint0_linear_10382_10623" x1="-29.4541" y1="11.1607" x2="303.011" y2="59.5842" gradientUnits="userSpaceOnUse">
<stop stop-color="white"/>
<stop offset="1" stop-color="#171717"/>
</linearGradient>
<linearGradient id="paint1_linear_10382_10623" x1="-29.4541" y1="11.1607" x2="303.011" y2="59.5842" gradientUnits="userSpaceOnUse">
<stop stop-color="white"/>
<stop offset="1" stop-color="#171717"/>
</linearGradient>
<linearGradient id="paint2_linear_10382_10623" x1="-29.4541" y1="11.1607" x2="303.011" y2="59.5842" gradientUnits="userSpaceOnUse">
<stop stop-color="white"/>
<stop offset="1" stop-color="#171717"/>
</linearGradient>
<linearGradient id="paint3_linear_10382_10623" x1="-29.4541" y1="11.1607" x2="303.011" y2="59.5842" gradientUnits="userSpaceOnUse">
<stop stop-color="white"/>
<stop offset="1" stop-color="#171717"/>
</linearGradient>
<linearGradient id="paint4_linear_10382_10623" x1="-29.4541" y1="11.1607" x2="303.011" y2="59.5842" gradientUnits="userSpaceOnUse">
<stop stop-color="white"/>
<stop offset="1" stop-color="#171717"/>
</linearGradient>
<linearGradient id="paint5_linear_10382_10623" x1="-29.4541" y1="11.1607" x2="303.011" y2="59.5842" gradientUnits="userSpaceOnUse">
<stop stop-color="white"/>
<stop offset="1" stop-color="#171717"/>
</linearGradient>
<linearGradient id="paint6_linear_10382_10623" x1="-29.4541" y1="11.1607" x2="303.011" y2="59.5842" gradientUnits="userSpaceOnUse">
<stop stop-color="white"/>
<stop offset="1" stop-color="#171717"/>
</linearGradient>
<linearGradient id="paint7_linear_10382_10623" x1="-29.4541" y1="11.1607" x2="303.011" y2="59.5842" gradientUnits="userSpaceOnUse">
<stop stop-color="white"/>
<stop offset="1" stop-color="#171717"/>
</linearGradient>
</defs>
</svg>
