<svg width="18" height="18" viewBox="0 0 18 18" fill="none" xmlns="http://www.w3.org/2000/svg">
<path d="M17.3309 1.5595C17.2761 2.77337 17.1018 3.96414 16.6749 5.10886C16.3115 6.08353 15.7746 6.95703 15.1369 7.77292C14.4742 8.6207 13.7082 9.36785 12.9052 10.0791C12.6311 10.3219 12.3543 10.5619 12.0748 10.7985C12.0102 10.8532 11.9798 10.9084 11.9756 10.995C11.9202 12.1339 11.8609 13.2727 11.8023 14.4117C11.7976 14.5031 11.7857 14.5945 11.7852 14.6859C11.7847 14.8495 11.7082 14.9627 11.5706 15.0427C11.2225 15.2447 10.8753 15.4481 10.5277 15.651C9.61145 16.1857 8.69296 16.7168 7.78025 17.2577C7.55478 17.3914 7.3716 17.3364 7.22894 17.1827C7.05771 16.9982 6.87824 16.821 6.69548 16.6479C6.55968 16.5194 6.52823 16.3796 6.58384 16.2013C6.85737 15.3238 7.12334 14.444 7.39659 13.5665C7.42351 13.4799 7.41184 13.4277 7.34716 13.3633C6.44529 12.4651 5.54562 11.5646 4.64883 10.6613C4.5821 10.5941 4.52841 10.5905 4.44479 10.6166C3.57697 10.8872 2.7071 11.1511 1.83956 11.423C1.64787 11.4831 1.49669 11.4562 1.35704 11.3047C1.18032 11.1129 0.989319 10.9343 0.80587 10.7488C0.641507 10.5824 0.62654 10.4705 0.742431 10.2713C1.48364 8.99792 2.22623 7.72535 2.96607 6.45127C3.05505 6.29813 3.17726 6.22733 3.35521 6.21867C4.32835 6.17096 5.30121 6.11639 6.2742 6.06456C6.51628 6.05164 6.75837 6.03556 7.00072 6.03088C7.09616 6.02896 7.15904 5.99761 7.22015 5.92462C7.7315 5.31342 8.25864 4.71597 8.81696 4.14725C9.6341 3.31487 10.5132 2.55809 11.5101 1.9451C12.3861 1.40635 13.3354 1.06804 14.3441 0.885614C15.1933 0.731784 16.0499 0.672672 16.9111 0.667173C16.9476 0.666898 16.9844 0.666486 17.0208 0.669785C17.203 0.686556 17.3409 0.852621 17.3331 1.01003C17.3239 1.19272 17.3309 1.37639 17.3309 1.5595ZM15.2686 3.9361C15.2682 3.26483 14.7373 2.73309 14.0665 2.73171C13.3999 2.73034 12.8629 3.26593 12.8605 3.93445C12.8582 4.60833 13.3988 5.14914 14.0718 5.14598C14.7403 5.14282 15.2691 4.60833 15.2686 3.93596V3.9361Z" fill="#787879"/>
<path d="M1.67596 16.5754C1.49166 16.5749 1.37079 16.3947 1.44506 16.2262C1.49915 16.1033 1.56639 15.986 1.62879 15.8668C1.9448 15.264 2.26093 14.6615 2.57729 14.0588C2.89365 13.4563 3.21024 12.8538 3.5266 12.2513C3.5755 12.1581 3.62717 12.0718 3.74147 12.0421C3.84838 12.0141 3.93961 12.0362 4.02034 12.1053C4.0727 12.1503 4.11953 12.2018 4.16855 12.2507C4.72561 12.8085 5.28232 13.3666 5.84007 13.9236C5.91054 13.994 5.96602 14.0698 5.96279 14.1743C5.95887 14.3018 5.89509 14.3891 5.78264 14.4475C5.45186 14.6193 5.12235 14.7935 4.79262 14.967C3.81689 15.4808 2.84129 15.9948 1.86545 16.5082C1.80467 16.5402 1.74574 16.5795 1.67608 16.5753L1.67596 16.5754Z" fill="#787879"/>
</svg>
