<svg width="48" height="48" viewBox="0 0 48 48" fill="none" xmlns="http://www.w3.org/2000/svg">
<path d="M0.6 24C0.6 11.0765 11.0765 0.6 24 0.6C36.9235 0.6 47.4 11.0765 47.4 24C47.4 36.9235 36.9235 47.4 24 47.4C11.0765 47.4 0.6 36.9235 0.6 24Z" stroke="#373738" stroke-width="1.2"/>
<path d="M32.83 26.6C31.9 26.06 31.33 25.07 31.33 24C31.33 22.93 31.9 21.94 32.83 21.4C32.99 21.3 33.05 21.1 32.95 20.94L31.28 18.06C31.22 17.95 31.11 17.89 31 17.89C30.94 17.89 30.88 17.91 30.83 17.94C30.37 18.2 29.85 18.34 29.33 18.34C28.8 18.34 28.28 18.2 27.81 17.93C26.88 17.39 26.31 16.41 26.31 15.34C26.31 15.15 26.16 15 25.98 15H22.02C21.84 15 21.69 15.15 21.69 15.34C21.69 16.41 21.12 17.39 20.19 17.93C19.72 18.2 19.2 18.34 18.67 18.34C18.15 18.34 17.63 18.2 17.17 17.94C17.01 17.84 16.81 17.9 16.72 18.06L15.04 20.94C15.01 20.99 15 21.05 15 21.1C15 21.22 15.06 21.33 15.17 21.4C16.1 21.94 16.67 22.92 16.67 23.99C16.67 25.07 16.1 26.06 15.18 26.6H15.17C15.01 26.7 14.95 26.9 15.05 27.06L16.72 29.94C16.78 30.05 16.89 30.11 17 30.11C17.06 30.11 17.12 30.09 17.17 30.06C18.11 29.53 19.26 29.53 20.19 30.07C21.11 30.61 21.68 31.59 21.68 32.66C21.68 32.85 21.83 33 22.02 33H25.98C26.16 33 26.31 32.85 26.31 32.66C26.31 31.59 26.88 30.61 27.81 30.07C28.28 29.8 28.8 29.66 29.33 29.66C29.85 29.66 30.37 29.8 30.83 30.06C30.99 30.16 31.19 30.1 31.28 29.94L32.96 27.06C32.99 27.01 33 26.95 33 26.9C33 26.78 32.94 26.67 32.83 26.6ZM24 27C22.34 27 21 25.66 21 24C21 22.34 22.34 21 24 21C25.66 21 27 22.34 27 24C27 25.66 25.66 27 24 27Z" fill="#FF57C4"/>
</svg>
