<svg width="16" height="15" viewBox="0 0 16 15" fill="none" xmlns="http://www.w3.org/2000/svg">
<path d="M8.80164 0.829883L10.42 4.09404C10.5417 4.33988 10.7767 4.50989 11.0492 4.54906L14.7849 5.08902C15.4699 5.18818 15.7433 6.0282 15.2475 6.50987L12.5467 9.13071C12.3492 9.32238 12.2591 9.5982 12.3058 9.86904L12.9232 13.4557C13.0482 14.1832 12.2841 14.7382 11.6291 14.3957L8.38915 12.6999C8.14581 12.5724 7.85579 12.5724 7.61329 12.6999L4.37578 14.394C3.71995 14.7374 2.95325 14.1815 3.07909 13.4524L3.69666 9.86904C3.74333 9.5982 3.65328 9.32238 3.45578 9.13071L0.75497 6.50987C0.258303 6.0282 0.53158 5.18818 1.21741 5.08902L4.95327 4.54906C5.22494 4.50989 5.45994 4.33988 5.58244 4.09404L7.20079 0.829883C7.52662 0.167383 8.47331 0.167383 8.80164 0.829883Z" fill="#FF57C4"/>
</svg>
