<svg width="20" height="20" viewBox="0 0 20 20" fill="none" xmlns="http://www.w3.org/2000/svg">
<path d="M3.53334 9.55009C7.55834 7.78342 10.2417 6.62509 11.5917 6.05842C15.425 4.45008 16.225 4.17508 16.7417 4.16675C16.8583 4.16675 17.1084 4.19175 17.275 4.32508C17.4167 4.44175 17.45 4.59175 17.475 4.70008C17.4917 4.80841 17.5167 5.05842 17.5 5.25008C17.2917 7.45008 16.3917 12.7751 15.9333 15.2334C15.7417 16.2751 15.3583 16.6251 14.9917 16.6584C14.1917 16.7334 13.5833 16.1251 12.8 15.6168C11.5833 14.8168 10.9 14.3168 9.71669 13.5334C8.35002 12.6334 9.23334 12.1334 10.0167 11.3251C10.2167 11.1167 13.7583 7.88342 13.825 7.58342C13.8333 7.55009 13.8417 7.40841 13.7584 7.34175C13.675 7.26675 13.5584 7.29175 13.475 7.31675C13.35 7.34175 11.4083 8.63341 7.65001 11.1917C7.10001 11.5751 6.60002 11.7584 6.15002 11.7501C5.65835 11.7418 4.70834 11.4668 4.00001 11.2418C3.13334 10.9584 2.45003 10.8084 2.50836 10.3251C2.54169 10.0751 2.88334 9.81675 3.53334 9.55842V9.55009Z" fill="#787879"/>
</svg>
