<svg width="17" height="16" viewBox="0 0 17 16" fill="none" xmlns="http://www.w3.org/2000/svg">
<path opacity="0.4" d="M3.32667 7.64001C6.54667 6.22667 8.69335 5.3 9.77335 4.84667C12.84 3.56 13.48 3.34 13.8933 3.33333C13.9867 3.33333 14.1867 3.35334 14.32 3.46C14.4334 3.55334 14.46 3.67333 14.48 3.76C14.4933 3.84667 14.5133 4.04667 14.5 4.2C14.3333 5.96 13.6133 10.22 13.2467 12.1867C13.0933 13.02 12.7867 13.3 12.4933 13.3267C11.8533 13.3867 11.3667 12.9 10.74 12.4933C9.76667 11.8533 9.22002 11.4533 8.27335 10.8267C7.18002 10.1067 7.88667 9.70667 8.51334 9.06C8.67334 8.89333 11.5067 6.30667 11.56 6.06667C11.5667 6.04 11.5734 5.92667 11.5067 5.87333C11.44 5.81333 11.3467 5.83333 11.28 5.85333C11.18 5.87333 9.62668 6.90666 6.62001 8.95333C6.18001 9.26 5.78002 9.40667 5.42002 9.4C5.02668 9.39334 4.26667 9.17334 3.70001 8.99334C3.00667 8.76667 2.46002 8.64667 2.50669 8.26C2.53335 8.06 2.80667 7.85333 3.32667 7.64667V7.64001Z" fill="white"/>
</svg>
