<svg xmlns="http://www.w3.org/2000/svg" width="16" height="16" viewBox="0 0 16 16" fill="none">
  <path fill-rule="evenodd" clip-rule="evenodd" d="M7.99992 1.33317C11.6818 1.33317 14.6666 4.31794 14.6666 7.99984C14.6666 11.6817 11.6818 14.6665 7.99992 14.6665C4.31802 14.6665 1.33325 11.6817 1.33325 7.99984C1.33325 4.31794 4.31802 1.33317 7.99992 1.33317ZM7.33325 10.6665C7.33325 11.0347 7.63173 11.3332 7.99992 11.3332C8.36811 11.3332 8.66659 11.0347 8.66659 10.6665C8.66659 10.2983 8.36811 9.99984 7.99992 9.99984C7.63173 9.99984 7.33325 10.2983 7.33325 10.6665ZM7.33325 7.99984C7.33325 8.36803 7.63173 8.6665 7.99992 8.6665C8.36811 8.6665 8.66659 8.36803 8.66659 7.99984V5.33317C8.66659 4.96498 8.36811 4.6665 7.99992 4.6665C7.63173 4.6665 7.33325 4.96498 7.33325 5.33317V7.99984Z" fill="#777E90"/>
</svg>