<svg width="16" height="16" viewBox="0 0 16 16" fill="none" xmlns="http://www.w3.org/2000/svg">
<path opacity="0.4" d="M13.2933 5.32667C13.2999 5.44 13.2999 5.56 13.2999 5.68C13.2999 9.24 10.5532 13.34 5.52658 13.34C3.97991 13.34 2.53992 12.9 1.33325 12.1333C1.55325 12.16 1.76659 12.1667 1.99326 12.1667C3.27326 12.1667 4.44659 11.74 5.38659 11.02C4.18659 10.9933 3.17992 10.22 2.83325 9.15333C2.99992 9.17999 3.17325 9.19333 3.34659 9.19333C3.59325 9.19333 3.83992 9.15999 4.06659 9.09999C2.81326 8.84666 1.87325 7.76667 1.87325 6.46V6.42666C2.23992 6.62666 2.65992 6.75333 3.10659 6.76666C2.37325 6.27999 1.88659 5.45999 1.88659 4.52666C1.88659 4.02666 2.01992 3.56666 2.25992 3.16666C3.60659 4.8 5.62658 5.86666 7.89325 5.98666C7.85325 5.78666 7.82659 5.58 7.82659 5.37333C7.82659 3.88666 9.04658 2.68 10.5599 2.68C11.3466 2.68 12.0599 3.00666 12.5533 3.52666C13.1733 3.41333 13.7599 3.18667 14.2866 2.88C14.0866 3.50667 13.6533 4.03333 13.0866 4.35999C13.6333 4.29999 14.1666 4.15333 14.6599 3.94666C14.2866 4.48 13.8199 4.95333 13.2866 5.33999L13.2933 5.32667Z" fill="white"/>
</svg>
