<svg width="33" height="32" viewBox="0 0 33 32" fill="none" xmlns="http://www.w3.org/2000/svg">
<path opacity="0.4" d="M8.5 13.3335C5.83333 13.3335 4.5 14.6668 4.5 17.3335V24.0002C4.5 26.6668 5.83333 28.0002 8.5 28.0002H24.5C27.1667 28.0002 28.5 26.6668 28.5 24.0002V17.3335C28.5 14.6668 27.1667 13.3335 24.5 13.3335H8.5Z" fill="white"/>
<path d="M21.2067 7.29345L17.2067 3.29345C17.1147 3.20145 17.0039 3.12813 16.8812 3.07746C16.6372 2.97613 16.3612 2.97613 16.1172 3.07746C15.9946 3.12813 15.884 3.20145 15.792 3.29345L11.792 7.29345C11.4014 7.68411 11.4014 8.31749 11.792 8.70816C12.1827 9.09883 12.8161 9.09883 13.2067 8.70816L15.5 6.41479V21.3335C15.5 21.8855 15.948 22.3335 16.5 22.3335C17.052 22.3335 17.5 21.8855 17.5 21.3335V6.41479L19.7933 8.70816C19.988 8.90283 20.244 9.00146 20.5 9.00146C20.756 9.00146 21.0121 8.90416 21.2067 8.70816C21.5974 8.31749 21.5974 7.68278 21.2067 7.29345Z" fill="white"/>
</svg>
