<svg width="82" height="40" viewBox="0 0 82 40" fill="none" xmlns="http://www.w3.org/2000/svg">
<g clip-path="url(#clip0_9074_25453)">
<path d="M49.0485 33.3015C48.434 33.3015 47.8499 33.1422 47.2961 32.8388L41.2654 29.4782C41.0682 29.3645 40.8406 29.3114 40.613 29.3114C40.4082 29.3114 40.2034 29.3569 40.0138 29.4479L33.8237 32.5126C33.3155 32.7629 32.7769 32.8919 32.2231 32.8919C31.1459 32.8919 30.1294 32.4064 29.4316 31.5643C28.7488 30.7375 28.4757 29.6527 28.6881 28.5907L30.0157 21.8166C30.0991 21.3842 29.9701 20.9366 29.6591 20.618L24.827 15.6797C23.8636 14.6935 23.545 13.2674 24.0001 11.9626C24.4553 10.6578 25.5931 9.74754 26.9662 9.58066L33.8237 8.7538C34.2637 8.7007 34.6506 8.4352 34.8554 8.04074L38.0566 1.92657C38.6787 0.735597 39.9 -0.0078125 41.2502 -0.0078125C42.6688 -0.0078125 43.9205 0.788698 44.5197 2.07829L47.4251 8.34417C47.6147 8.74622 47.9865 9.02689 48.4188 9.10275L55.2309 10.2558C56.5964 10.491 57.6887 11.4544 58.0832 12.7819C58.4776 14.1018 58.0983 15.5128 57.0818 16.4534L52.0221 21.1566C51.6959 21.46 51.5442 21.9 51.6049 22.34L52.6138 29.1748C52.7655 30.2292 52.4773 31.2457 51.7869 32.0498C51.0966 32.8539 50.0953 33.3091 49.0485 33.3091V33.3015Z" fill="#E07906"/>
<path d="M48.4189 10.0587L55.3978 11.2421C57.4687 11.591 58.2425 14.1702 56.7026 15.6039L51.5139 20.4285C50.8994 20.9974 50.6112 21.8319 50.7325 22.6587L51.7642 29.668C52.0676 31.7465 49.8602 33.2789 48.0168 32.2548L41.8268 28.8108C41.0986 28.4012 40.211 28.386 39.4676 28.7577L33.1259 31.9058C31.2446 32.8389 29.1054 31.2079 29.5074 29.1446L30.8729 22.196C31.0322 21.3767 30.7818 20.5271 30.1977 19.9354L25.2442 14.8757C23.7726 13.3737 24.6677 10.8324 26.7538 10.5821L33.7858 9.7325C34.6127 9.63389 35.3409 9.13322 35.7278 8.38981L39.0125 2.11635C39.991 0.250235 42.6764 0.318507 43.5639 2.22255L46.5452 8.64773C46.8941 9.40631 47.5996 9.93732 48.4189 10.0815V10.0587Z" fill="url(#paint0_linear_9074_25453)"/>
<g style="mix-blend-mode:overlay" opacity="0.4">
<path d="M55.4054 11.2419L48.4264 10.0585C47.5996 9.92196 46.9017 9.38336 46.5527 8.62478L43.5715 2.1996C42.684 0.295558 39.9986 0.227285 39.02 2.0934L35.7354 8.36686C35.3485 9.11027 34.6202 9.61094 33.7934 9.70955L26.7613 10.5592C24.6752 10.8095 23.7801 13.3507 25.2518 14.8527L30.2053 19.9125C30.668 20.3828 30.9108 21.0124 30.9184 21.6572C38.838 20.929 48.745 18.6684 57.226 12.5922C56.8846 11.9246 56.2702 11.386 55.413 11.2419H55.4054Z" fill="#FDFA91"/>
</g>
<path d="M46.6058 11.5001L53.3344 12.638C54.5785 12.8504 55.0412 14.3979 54.1158 15.2551L49.1167 19.8976C48.7526 20.2389 48.5705 20.7396 48.6464 21.2327L49.6401 27.9841C49.8222 29.2357 48.4947 30.1536 47.3947 29.5391L41.4323 26.2241C40.9923 25.9814 40.4613 25.9662 40.0137 26.1938L33.8996 29.2205C32.7693 29.7819 31.4873 28.8033 31.73 27.5668L33.0424 20.8761C33.141 20.3831 32.9893 19.8748 32.6403 19.5183L27.8688 14.6406C26.9889 13.7379 27.5199 12.2131 28.7715 12.0614L35.5457 11.2422C36.0463 11.1815 36.4787 10.878 36.7139 10.4381L39.8772 4.39217C40.4613 3.27706 42.0771 3.31499 42.6081 4.46044L45.4831 10.6505C45.6955 11.1056 46.1127 11.4242 46.6134 11.5077L46.6058 11.5001Z" stroke="#FDFA91" stroke-width="0.75" stroke-miterlimit="10"/>
<g style="mix-blend-mode:overlay" opacity="0.5">
<path d="M48.4188 10.0585C47.5919 9.92196 46.8941 9.38336 46.5451 8.62478L43.5639 2.1996C42.6763 0.295558 39.991 0.227285 39.0124 2.0934L35.7277 8.36686C35.3409 9.11027 34.6126 9.61094 33.7858 9.70955L26.7537 10.5592C26.5944 10.5819 26.4579 10.635 26.3062 10.6805C28.324 10.9688 33.3003 11.0143 35.0374 10.2254C36.4939 9.55784 38.9593 3.92916 39.7103 2.76095C40.4613 1.59273 42.0012 1.05414 42.9191 2.76095C43.837 4.46776 45.2555 8.9358 46.5072 9.97506C47.8574 11.1053 52.0979 11.0219 56.0805 11.4619C55.8757 11.3633 55.6481 11.2874 55.3977 11.2419L48.4188 10.0585Z" fill="white"/>
</g>
<g style="mix-blend-mode:multiply" opacity="0.8">
<path d="M56.7101 15.6036C56.877 15.4443 57.006 15.2699 57.1197 15.0954C54.5937 17.0298 50.5656 20.14 50.0877 20.6861C49.3822 21.4826 49.936 23.2198 50.2925 25.3969C50.8539 28.8181 50.8463 29.6602 49.7615 30.6008C48.6767 31.5414 46.5679 30.6008 44.497 29.2809C42.426 27.9609 41.0682 26.8382 40.1275 27.3996C39.1869 27.9609 35.3788 29.6071 33.7327 30.4567C32.0866 31.3063 30.1598 29.9863 30.6301 27.8244C31.1004 25.6624 32.041 20.6786 31.4797 20.1172C31.0018 19.6393 26.2227 15.323 24.7056 13.9575C24.8269 14.2761 24.9862 14.5796 25.2517 14.8526L30.2053 19.9124C30.7894 20.5117 31.0397 21.3537 30.8804 22.173L29.515 29.1216C29.1129 31.1849 31.2445 32.8159 33.1334 31.8828L39.4751 28.7347C40.2261 28.363 41.1061 28.3857 41.8343 28.7878L48.0244 32.2317C49.8601 33.2558 52.0752 31.7235 51.7718 29.645L50.7401 22.6357C50.6187 21.8088 50.9146 20.9744 51.5214 20.4055L56.7101 15.5809V15.6036Z" fill="#FFCA02"/>
</g>
<path d="M24.5919 34.6216C24.1822 34.8188 23.7347 34.9023 23.2719 34.8719L18.1515 34.5533C17.9846 34.5457 17.8101 34.5761 17.6584 34.6519C17.5219 34.7202 17.4005 34.8188 17.3019 34.9326L14.1386 38.9683C13.8807 39.3021 13.5545 39.56 13.1828 39.7344C12.4621 40.0758 11.6201 40.0834 10.8919 39.7344C10.1712 39.4007 9.64021 38.7559 9.44298 37.9745L8.16856 33.0058C8.08512 32.6872 7.85755 32.4293 7.54653 32.3155L2.72953 30.548C1.76614 30.1915 1.09858 29.3419 0.992383 28.3254C0.878596 27.3013 1.34892 26.3303 2.22128 25.7765L6.55279 23.0305C6.83346 22.856 7.00035 22.5526 7.01552 22.2264L7.20517 17.0984C7.24309 16.097 7.8272 15.2095 8.72233 14.7847C9.67056 14.3296 10.7705 14.4661 11.5822 15.1336L15.5344 18.4031C15.7847 18.6155 16.1261 18.6838 16.4447 18.5928L21.3755 17.1894C22.3616 16.9087 23.4009 17.2046 24.0912 17.9707C24.7815 18.7293 24.9711 19.7989 24.5919 20.7472L22.703 25.5186C22.5816 25.8221 22.6195 26.171 22.8016 26.4441L25.6615 30.6997C26.1014 31.3597 26.2304 32.1335 26.0256 32.892C25.8208 33.6506 25.2973 34.2802 24.5919 34.614V34.6216Z" fill="#E07906"/>
<path d="M16.733 19.2449L21.7927 17.8036C23.2947 17.3788 24.6374 18.8581 24.0609 20.307L22.1265 25.1998C21.8989 25.7763 21.9672 26.4287 22.3161 26.9446L25.2518 31.314C26.1242 32.6112 25.1305 34.3407 23.5678 34.2421L18.3184 33.9159C17.6964 33.878 17.1047 34.1435 16.7178 34.6366L13.4711 38.7784C12.5077 40.0073 10.5505 39.5977 10.1636 38.0881L8.8513 32.9904C8.69959 32.3912 8.25961 31.9057 7.6755 31.6933L2.73714 29.8803C1.27308 29.3417 1.05309 27.3542 2.37302 26.5197L6.81072 23.6978C7.33414 23.364 7.66033 22.7951 7.68309 22.1731L7.88032 16.9161C7.94101 15.3534 9.7616 14.5417 10.9677 15.5355L15.0186 18.8884C15.4965 19.2829 16.1413 19.4194 16.733 19.2449Z" fill="url(#paint1_linear_9074_25453)"/>
<g style="mix-blend-mode:overlay" opacity="0.4">
<path d="M21.7927 17.8037L16.7329 19.245C16.1336 19.4119 15.4964 19.2829 15.0185 18.8884L10.9677 15.5355C9.76156 14.5418 7.94097 15.361 7.88028 16.9161L7.68305 22.1731C7.66029 22.7951 7.3341 23.3641 6.81068 23.6978L2.37298 26.5198C1.05305 27.3542 1.26545 29.3417 2.7371 29.8803L7.67546 31.6933C8.1382 31.8602 8.50232 32.2015 8.71472 32.6339C13.7896 29.6148 19.7066 24.9267 23.4464 18.1374C23.0064 17.7961 22.4223 17.6368 21.8002 17.8112L21.7927 17.8037Z" fill="#FDFA91"/>
</g>
<path d="M15.9819 20.7849L20.852 19.3967C21.7547 19.1387 22.5588 20.0263 22.2099 20.8987L20.3437 25.6094C20.2072 25.9584 20.2527 26.3453 20.4575 26.6563L23.2795 30.8588C23.8029 31.6402 23.2036 32.6794 22.2705 32.6187L17.2108 32.3001C16.8391 32.2774 16.4826 32.4367 16.2474 32.7325L13.1221 36.7151C12.5455 37.4509 11.3697 37.2082 11.1346 36.2979L9.87532 31.3898C9.7843 31.0257 9.51879 30.7375 9.16984 30.6085L4.41354 28.8638C3.53358 28.5376 3.40463 27.3466 4.19355 26.8459L8.47195 24.1302C8.78297 23.933 8.9802 23.5916 8.99537 23.2199L9.18502 18.1602C9.22294 17.2271 10.3153 16.734 11.036 17.3333L14.9426 20.5649C15.2309 20.8 15.6178 20.8835 15.9743 20.7849H15.9819Z" stroke="#FDFA91" stroke-width="0.56" stroke-miterlimit="10"/>
<g style="mix-blend-mode:overlay" opacity="0.5">
<path d="M16.733 19.245C16.1337 19.4119 15.4965 19.2829 15.0186 18.8884L10.9678 15.5355C9.76161 14.5418 7.94102 15.361 7.88033 16.9161L7.6831 22.1731C7.66034 22.7951 7.33415 23.3641 6.81073 23.6978L2.37303 26.5198C2.27441 26.5805 2.19856 26.6639 2.11511 26.7398C3.564 26.2922 6.90935 24.7295 7.81964 23.6372C8.58581 22.7269 8.4341 18.1602 8.56305 17.1361C8.69201 16.112 9.5568 15.2548 10.7174 16.112C11.8781 16.9616 14.26 19.5029 15.4282 19.7987C16.695 20.1249 19.5094 18.714 22.3237 17.7354C22.1492 17.7354 21.9748 17.7581 21.8003 17.8037L16.7406 19.245H16.733Z" fill="white"/>
</g>
<g style="mix-blend-mode:multiply" opacity="0.8">
<path d="M24.0608 20.3072C24.1215 20.1479 24.1519 19.9886 24.1746 19.8369C23.0974 21.9382 21.3982 25.3139 21.2465 25.8297C21.0265 26.5883 21.952 27.582 22.8926 28.9247C24.3643 31.0412 24.6222 31.6101 24.205 32.5811C23.7801 33.5597 22.0658 33.6052 20.2527 33.3852C18.4473 33.1652 17.1729 32.8466 16.7178 33.5217C16.2702 34.1969 14.2448 36.5181 13.4103 37.6181C12.5759 38.7104 10.8691 38.4449 10.4898 36.8443C10.1105 35.2437 9.14711 31.6025 8.59335 31.4053C8.12302 31.2384 3.53361 29.8729 2.08472 29.4406C2.26678 29.615 2.47159 29.7667 2.7371 29.8654L7.67546 31.6784C8.25957 31.8908 8.69955 32.3763 8.85126 32.9755L10.1636 38.0732C10.5505 39.5828 12.5076 39.9924 13.471 38.7635L16.7178 34.6217C17.097 34.1362 17.6963 33.8631 18.3184 33.901L23.5677 34.2272C25.1304 34.3258 26.1242 32.5963 25.2518 31.2991L22.3161 26.9297C21.9671 26.4138 21.8989 25.7614 22.1264 25.1849L24.0608 20.2921V20.3072Z" fill="#FFCA02"/>
</g>
<path d="M57.408 34.6216C57.8177 34.8188 58.2652 34.9023 58.728 34.8719L63.8484 34.5533C64.0153 34.5457 64.1898 34.5761 64.3415 34.6519C64.478 34.7202 64.5994 34.8188 64.698 34.9326L67.8613 38.9683C68.1192 39.3021 68.4454 39.56 68.8171 39.7344C69.5378 40.0758 70.3798 40.0834 71.108 39.7344C71.8287 39.4007 72.3597 38.7559 72.5569 37.9745L73.8313 33.0058C73.9148 32.6872 74.1424 32.4293 74.4534 32.3155L79.2704 30.548C80.2338 30.1915 80.9013 29.3419 81.0075 28.3254C81.1213 27.3013 80.651 26.3303 79.7786 25.7765L75.4471 23.0305C75.1664 22.856 74.9995 22.5526 74.9844 22.2264L74.7947 17.0984C74.7568 16.097 74.1727 15.2095 73.2776 14.7847C72.3293 14.3296 71.2294 14.4661 70.4177 15.1336L66.4655 18.4031C66.2152 18.6155 65.8738 18.6838 65.5552 18.5928L60.6244 17.1894C59.6383 16.9087 58.599 17.2046 57.9087 17.9707C57.2184 18.7293 57.0288 19.7989 57.408 20.7472L59.2969 25.5186C59.4183 25.8221 59.3804 26.171 59.1983 26.4441L56.3384 30.6997C55.8985 31.3597 55.7695 32.1335 55.9743 32.892C56.1791 33.6506 56.7026 34.2802 57.408 34.614V34.6216Z" fill="#E07906"/>
<path d="M65.2669 19.2449L60.2072 17.8036C58.7052 17.3788 57.3625 18.8581 57.939 20.307L59.8734 25.1998C60.101 25.7763 60.0327 26.4287 59.6838 26.9446L56.7481 31.314C55.8757 32.6112 56.8694 34.3407 58.4321 34.2421L63.6815 33.9159C64.3035 33.878 64.9028 34.1435 65.2821 34.6366L68.5288 38.7784C69.4922 40.0073 71.4494 39.5977 71.8363 38.0881L73.1486 32.9904C73.3003 32.3912 73.7403 31.9057 74.3244 31.6933L79.2628 29.8803C80.7268 29.3417 80.9468 27.3542 79.6269 26.5197L75.1892 23.6978C74.6658 23.364 74.3396 22.7951 74.3168 22.1731L74.1196 16.9161C74.0589 15.3534 72.2383 14.5417 71.0322 15.5355L66.9813 18.8884C66.5034 19.2829 65.8586 19.4194 65.2669 19.2449Z" fill="url(#paint2_linear_9074_25453)"/>
<g style="mix-blend-mode:overlay" opacity="0.4">
<path d="M60.2072 17.8037L65.2669 19.245C65.8662 19.4119 66.5034 19.2829 66.9813 18.8884L71.0321 15.5355C72.2383 14.5418 74.0589 15.361 74.1196 16.9161L74.3168 22.1731C74.3395 22.7951 74.6657 23.3641 75.1892 23.6978L79.6269 26.5198C80.9468 27.3542 80.7344 29.3417 79.2627 29.8803L74.3244 31.6933C73.8616 31.8602 73.4975 32.2015 73.2851 32.6339C68.2102 29.6148 62.2933 24.9267 58.5535 18.1374C58.9934 17.7961 59.5776 17.6368 60.1996 17.8112L60.2072 17.8037Z" fill="#FDFA91"/>
</g>
<path d="M66.0179 20.7849L61.1478 19.3967C60.2451 19.1387 59.441 20.0263 59.79 20.8987L61.6561 25.6094C61.7926 25.9584 61.7471 26.3453 61.5423 26.6563L58.7204 30.8588C58.1969 31.6402 58.7962 32.6794 59.7293 32.6187L64.789 32.3001C65.1607 32.2774 65.5173 32.4367 65.7524 32.7325L68.8778 36.7151C69.4543 37.4509 70.6301 37.2082 70.8653 36.2979L72.1245 31.3898C72.2155 31.0257 72.481 30.7375 72.83 30.6085L77.5863 28.8638C78.4662 28.5376 78.5952 27.3466 77.8063 26.8459L73.5279 24.1302C73.2169 23.933 73.0196 23.5916 73.0045 23.2199L72.8148 18.1602C72.7769 17.2271 71.6845 16.734 70.9639 17.3333L67.0572 20.5649C66.7689 20.8 66.382 20.8835 66.0255 20.7849H66.0179Z" stroke="#FDFA91" stroke-width="0.56" stroke-miterlimit="10"/>
<g style="mix-blend-mode:overlay" opacity="0.5">
<path d="M65.2669 19.245C65.8662 19.4119 66.5034 19.2829 66.9813 18.8884L71.0321 15.5355C72.2383 14.5418 74.0589 15.361 74.1195 16.9161L74.3168 22.1731C74.3395 22.7951 74.6657 23.3641 75.1891 23.6978L79.6268 26.5198C79.7255 26.5805 79.8013 26.6639 79.8848 26.7398C78.4359 26.2922 75.0905 24.7295 74.1802 23.6372C73.4141 22.7269 73.5658 18.1602 73.4368 17.1361C73.3079 16.112 72.4431 15.2548 71.2824 16.112C70.1218 16.9616 67.7399 19.5029 66.5717 19.7987C65.3048 20.1249 62.4905 18.714 59.6761 17.7354C59.8506 17.7354 60.0251 17.7581 60.1996 17.8037L65.2593 19.245H65.2669Z" fill="white"/>
</g>
<g style="mix-blend-mode:multiply" opacity="0.8">
<path d="M57.939 20.3072C57.8784 20.1479 57.848 19.9886 57.8253 19.8369C58.9024 21.9382 60.6017 25.3139 60.7534 25.8297C60.9734 26.5883 60.0479 27.582 59.1073 28.9247C57.6356 31.0412 57.3777 31.6101 57.7949 32.5811C58.2197 33.5597 59.9341 33.6052 61.7471 33.3852C63.5601 33.1652 64.827 32.8466 65.2821 33.5217C65.7297 34.1969 67.7551 36.5181 68.5895 37.6181C69.424 38.7104 71.1384 38.4449 71.5101 36.8443C71.8894 35.2437 72.8528 31.6025 73.4065 31.4053C73.8768 31.2384 78.4663 29.8729 79.9151 29.4406C79.7331 29.615 79.5283 29.7667 79.2628 29.8654L74.3244 31.6784C73.7403 31.8908 73.3003 32.3763 73.1486 32.9755L71.8363 38.0732C71.4494 39.5828 69.4922 39.9924 68.5288 38.7635L65.2821 34.6217C64.9028 34.1362 64.3035 33.8631 63.6815 33.901L58.4321 34.2272C56.8694 34.3258 55.8757 32.5963 56.7481 31.2991L59.6838 26.9297C60.0327 26.4138 60.101 25.7614 59.8734 25.1849L57.939 20.2921V20.3072Z" fill="#FFCA02"/>
</g>
<path d="M38.0292 22V20.4448L40.9047 17.7661C41.3532 17.3556 41.7002 17.0192 41.9457 16.7568C42.1954 16.4902 42.3667 16.2638 42.4598 16.0776C42.5572 15.8872 42.6058 15.6989 42.6058 15.5127V15.4873C42.6058 15.2588 42.5572 15.0599 42.4598 14.8906C42.3625 14.7214 42.2207 14.5902 42.0345 14.4971C41.8483 14.404 41.6283 14.3574 41.3744 14.3574C41.1078 14.3574 40.8729 14.4124 40.6698 14.5225C40.4709 14.6325 40.3143 14.7848 40.2001 14.9795C40.0858 15.1699 40.0287 15.39 40.0287 15.6396V15.6904L37.8959 15.6841V15.646C37.8959 15.0366 38.044 14.5034 38.3402 14.0464C38.6407 13.5894 39.0575 13.2339 39.5907 12.98C40.1281 12.7218 40.7523 12.5928 41.4633 12.5928C42.1446 12.5928 42.7391 12.707 43.2469 12.9355C43.759 13.1598 44.1568 13.4751 44.4403 13.8813C44.7281 14.2876 44.8719 14.7616 44.8719 15.3032V15.335C44.8719 15.6777 44.8 16.0184 44.6561 16.3569C44.5122 16.6955 44.2753 17.0573 43.9452 17.4424C43.6151 17.8232 43.1687 18.257 42.6058 18.7437L40.4857 20.6035L41.1268 19.6006V20.6035L40.4857 20.1846H44.9926V22H38.0292Z" fill="#7A420A"/>
</g>
<defs>
<linearGradient id="paint0_linear_9074_25453" x1="40.4993" y1="30.7528" x2="41.2882" y2="4.46036" gradientUnits="userSpaceOnUse">
<stop stop-color="#F59300"/>
<stop offset="0.19" stop-color="#F59B03"/>
<stop offset="0.48" stop-color="#F8B10E"/>
<stop offset="0.84" stop-color="#FCD51F"/>
<stop offset="1" stop-color="#FFE828"/>
</linearGradient>
<linearGradient id="paint1_linear_9074_25453" x1="17.8329" y1="35.6076" x2="10.4671" y2="18.2512" gradientUnits="userSpaceOnUse">
<stop stop-color="#F59300"/>
<stop offset="0.26" stop-color="#F69B00"/>
<stop offset="0.67" stop-color="#FAB100"/>
<stop offset="1" stop-color="#FFC800"/>
</linearGradient>
<linearGradient id="paint2_linear_9074_25453" x1="64.1746" y1="35.6076" x2="71.5328" y2="18.2512" gradientUnits="userSpaceOnUse">
<stop stop-color="#F59300"/>
<stop offset="0.26" stop-color="#F69B00"/>
<stop offset="0.67" stop-color="#FAB100"/>
<stop offset="1" stop-color="#FFC800"/>
</linearGradient>
<clipPath id="clip0_9074_25453">
<rect width="80.0607" height="40" fill="white" transform="translate(0.969604)"/>
</clipPath>
</defs>
</svg>
