<svg width="16" height="16" viewBox="0 0 16 16" fill="none" xmlns="http://www.w3.org/2000/svg">
<path d="M13.0846 5.83464C12.882 6.47131 12.362 6.98801 11.724 7.18734C10.692 7.51001 9.71064 7.06734 9.21997 6.28801C9.1813 6.22668 9.18399 6.14936 9.21932 6.08602C9.50932 5.56869 9.67399 4.97134 9.67399 4.33334C9.67399 4.112 9.65463 3.89599 9.61597 3.68466C9.6033 3.61532 9.62463 3.54332 9.67863 3.49732C10.0486 3.18332 10.5274 3.00001 11.0407 3.00001C12.4514 3.00001 13.5513 4.36731 13.0846 5.83464ZM12.0733 8.18669H10.7533C10.64 8.18669 10.5533 8.27331 10.5533 8.38664C10.5533 8.43998 10.5734 8.49336 10.6134 8.5267C10.62 8.53336 10.6266 8.53997 10.6333 8.54664C11.5666 9.44664 12 10.7334 12 12.0134C12 12.26 11.9867 12.5 11.9467 12.72C11.94 12.7493 11.938 12.774 11.938 12.8007C11.938 12.914 12.0266 13 12.1333 13H13.1067C14.3267 13 15 12.3334 15 11.12C15 9.76671 14.2333 8.18669 12.0733 8.18669ZM6.00667 1.66667C4.53334 1.66667 3.34001 2.86001 3.34001 4.33334C3.34001 5.80667 4.53334 7 6.00667 7C7.47334 7 8.67334 5.80667 8.67334 4.33334C8.67334 2.86001 7.47334 1.66667 6.00667 1.66667ZM7.33333 8.33334H4.66667C1.96 8.33334 1 10.3134 1 12.0134C1 13.5334 1.80667 14.3333 3.33333 14.3333H8.66667C10.1933 14.3333 11 13.5334 11 12.0134C11 10.3134 10.04 8.33334 7.33333 8.33334Z" fill="#787879"/>
</svg>
