<svg width="82" height="40" viewBox="0 0 82 40" fill="none" xmlns="http://www.w3.org/2000/svg">
<path d="M47.4574 30.6468C46.9659 30.6468 46.4986 30.5194 46.0556 30.2766L41.2311 27.5883C41.0734 27.4973 40.8913 27.4548 40.7092 27.4548C40.5454 27.4548 40.3816 27.4912 40.2298 27.564L35.2779 30.0157C34.8713 30.2159 34.4405 30.3191 33.9975 30.3191C33.1358 30.3191 32.3226 29.9307 31.7643 29.2571C31.2181 28.5957 30.9996 27.7279 31.1696 26.8783L32.2315 21.4591C32.2983 21.1132 32.1951 20.7551 31.9463 20.5003L28.0807 16.5497C27.31 15.7608 27.0551 14.6199 27.4192 13.5761C27.7833 12.5323 28.6936 11.8041 29.792 11.6706L35.2779 11.0091C35.6299 10.9666 35.9394 10.7542 36.1033 10.4387L38.6642 5.54747C39.1618 4.59471 40.1388 4 41.219 4C42.3538 4 43.3551 4.63719 43.8345 5.66884L46.1588 10.6814C46.3105 11.0031 46.6078 11.2276 46.9537 11.2883L52.4033 12.2107C53.4956 12.3988 54.3695 13.1695 54.685 14.2315C55.0006 15.2874 54.6972 16.4162 53.884 17.1687L49.8363 20.9311C49.5753 21.1739 49.454 21.5258 49.5025 21.8778L50.3096 27.3455C50.431 28.1891 50.2004 29.0022 49.6482 29.6455C49.0959 30.2888 48.2949 30.6529 47.4574 30.6529V30.6468Z" fill="#E07906"/>
<path d="M46.9537 12.0532L52.5367 12.9999C54.1935 13.2791 54.8124 15.3424 53.5805 16.4893L49.4297 20.3489C48.9381 20.804 48.7075 21.4715 48.8046 22.133L49.6299 27.7403C49.8727 29.4031 48.1067 30.6289 46.6321 29.8097L41.6802 27.0546C41.0976 26.7269 40.3876 26.7147 39.7929 27.0121L34.7196 29.5305C33.2146 30.277 31.5033 28.9722 31.8249 27.3216L32.9173 21.7628C33.0447 21.1074 32.8444 20.4278 32.3772 19.9544L28.4144 15.9067C27.2371 14.7052 27.9532 12.6722 29.6221 12.4719L35.2476 11.7923C35.909 11.7134 36.4916 11.3129 36.8011 10.7182L39.4288 5.6995C40.2116 4.20664 42.3599 4.26126 43.0699 5.78445L45.4548 10.9245C45.734 11.5313 46.2983 11.9561 46.9537 12.0714V12.0532Z" fill="url(#paint0_linear_9074_25424)"/>
<g style="mix-blend-mode:overlay" opacity="0.4">
<path d="M52.5429 12.9996L46.9598 12.0529C46.2984 11.9436 45.7401 11.5128 45.4609 10.9059L43.076 5.7659C42.366 4.2427 40.2177 4.18809 39.4349 5.68094L36.8072 10.6996C36.4977 11.2943 35.9151 11.6948 35.2537 11.7737L29.6282 12.4534C27.9593 12.6537 27.2432 14.6866 28.4205 15.8882L32.3833 19.9359C32.7535 20.3121 32.9476 20.8158 32.9537 21.3316C39.2892 20.749 47.2147 18.9406 53.9993 14.0798C53.7262 13.5457 53.2347 13.1149 52.5489 12.9996H52.5429Z" fill="#FDFA91"/>
</g>
<path d="M45.5033 13.2061L50.886 14.1163C51.8813 14.2863 52.2514 15.5242 51.5111 16.21L47.5119 19.9239C47.2207 20.197 47.075 20.5975 47.1357 20.992L47.9307 26.3929C48.0763 27.3942 47.0143 28.1285 46.1344 27.637L41.3645 24.985C41.0126 24.7908 40.5878 24.7787 40.2297 24.9608L35.3385 27.3821C34.4343 27.8312 33.4087 27.0483 33.6029 26.0592L34.6528 20.7067C34.7317 20.3123 34.6103 19.9057 34.3311 19.6205L30.5141 15.7184C29.8101 14.9963 30.2349 13.7765 31.2362 13.6551L36.6554 12.9997C37.0559 12.9512 37.4018 12.7084 37.5899 12.3565L40.1205 7.51987C40.5878 6.6278 41.8804 6.65815 42.3052 7.57449L44.6051 12.5264C44.775 12.8905 45.1088 13.1454 45.5093 13.2121L45.5033 13.2061Z" stroke="#FDFA91" stroke-width="0.75" stroke-miterlimit="10"/>
<g style="mix-blend-mode:overlay" opacity="0.5">
<path d="M46.9536 12.0529C46.2921 11.9436 45.7338 11.5128 45.4547 10.9059L43.0698 5.7659C42.3598 4.2427 40.2115 4.18809 39.4287 5.68094L36.801 10.6996C36.4915 11.2943 35.9089 11.6948 35.2475 11.7737L29.622 12.4534C29.4945 12.4716 29.3853 12.5141 29.2639 12.5505C30.8781 12.7811 34.8591 12.8175 36.2488 12.1864C37.4139 11.6524 39.3862 7.14952 39.987 6.21497C40.5877 5.28042 41.8197 4.84956 42.5539 6.21497C43.2882 7.58038 44.423 11.1547 45.4243 11.9861C46.5045 12.8903 49.8968 12.8236 53.0828 13.1755C52.919 13.0967 52.7369 13.036 52.5366 12.9996L46.9536 12.0529Z" fill="white"/>
</g>
<g style="mix-blend-mode:multiply" opacity="0.8">
<path d="M53.5865 16.4887C53.7201 16.3613 53.8232 16.2217 53.9142 16.0822C51.8934 17.6296 48.6711 20.1177 48.2887 20.5546C47.7244 21.1918 48.1674 22.5815 48.4526 24.3232C48.9017 27.0601 48.8956 27.7337 48.0278 28.4862C47.16 29.2387 45.473 28.4862 43.8163 27.4303C42.1596 26.3743 41.0733 25.4762 40.3208 25.9253C39.5683 26.3743 36.5219 27.6912 35.205 28.3709C33.8882 29.0505 32.3468 27.9946 32.723 26.2651C33.0993 24.5356 33.8518 20.5486 33.4027 20.0995C33.0204 19.7172 29.1972 16.2642 27.9835 15.1719C28.0806 15.4268 28.2081 15.6695 28.4205 15.888L32.3832 19.9357C32.8505 20.4151 33.0507 21.0887 32.9233 21.7441L31.831 27.3028C31.5093 28.9535 33.2146 30.2582 34.7256 29.5118L39.7989 26.9933C40.3997 26.696 41.1036 26.7142 41.6862 27.0358L46.6381 29.7909C48.1067 30.6102 49.8787 29.3843 49.636 27.7215L48.8106 22.1142C48.7135 21.4528 48.9502 20.7852 49.4357 20.3301L53.5865 16.4705V16.4887Z" fill="#FFCA02"/>
</g>
<path d="M27.8926 31.7027C27.5649 31.8604 27.2068 31.9272 26.8366 31.9029L22.7404 31.648C22.6069 31.642 22.4673 31.6663 22.3459 31.7269C22.2367 31.7816 22.1396 31.8604 22.0607 31.9515L19.5302 35.1799C19.3238 35.4469 19.0629 35.6533 18.7655 35.7928C18.189 36.0659 17.5154 36.072 16.9328 35.7928C16.3563 35.5258 15.9315 35.01 15.7738 34.3849L14.7542 30.4101C14.6875 30.1552 14.5054 29.9489 14.2566 29.8578L10.4031 28.4439C9.63242 28.1587 9.0984 27.479 9.01344 26.6658C8.92241 25.8466 9.29866 25.0698 9.99654 24.6268L13.4617 22.43C13.6862 22.2904 13.8197 22.0477 13.8318 21.7867L13.9835 17.6844C14.0139 16.8834 14.4812 16.1734 15.1972 15.8335C15.9558 15.4694 16.8357 15.5786 17.4851 16.1127L20.6468 18.7282C20.847 18.8981 21.1201 18.9527 21.375 18.8799L25.3195 17.7572C26.1084 17.5327 26.9398 17.7694 27.492 18.3823C28.0443 18.9891 28.196 19.8448 27.8926 20.6034L26.3815 24.4205C26.2844 24.6632 26.3147 24.9423 26.4604 25.1608L28.7482 28.5652C29.1002 29.0932 29.2034 29.7122 29.0395 30.319C28.8757 30.9259 28.4569 31.4296 27.8926 31.6966V31.7027Z" fill="#E07906"/>
<path d="M21.6056 19.4017L25.6533 18.2487C26.8548 17.9089 27.9289 19.0922 27.4677 20.2513L25.9203 24.1655C25.7382 24.6267 25.7928 25.1486 26.072 25.5613L28.4205 29.0567C29.1184 30.0944 28.3234 31.4781 27.0733 31.3992L22.8739 31.1382C22.3763 31.1079 21.9029 31.3203 21.5934 31.7147L18.9961 35.0281C18.2254 36.0112 16.6597 35.6835 16.3502 34.4759L15.3004 30.3979C15.179 29.9185 14.827 29.5301 14.3598 29.3602L10.4092 27.9098C9.23795 27.4789 9.06196 25.889 10.1179 25.2214L13.668 22.964C14.0867 22.6969 14.3476 22.2418 14.3658 21.7442L14.5236 17.5387C14.5722 16.2886 16.0286 15.6393 16.9935 16.4342L20.2341 19.1165C20.6164 19.4321 21.1322 19.5413 21.6056 19.4017Z" fill="url(#paint1_linear_9074_25424)"/>
<g style="mix-blend-mode:overlay" opacity="0.4">
<path d="M25.6533 18.249L21.6056 19.402C21.1262 19.5356 20.6165 19.4324 20.2341 19.1168L16.9936 16.4345C16.0287 15.6396 14.5722 16.295 14.5237 17.539L14.3659 21.7445C14.3477 22.2421 14.0867 22.6972 13.668 22.9643L10.1179 25.2217C9.06203 25.8893 9.23194 27.4792 10.4092 27.9101L14.3598 29.3605C14.73 29.494 15.0213 29.7671 15.1912 30.113C19.251 27.6977 23.9845 23.9474 26.9763 18.516C26.6243 18.243 26.157 18.1155 25.6594 18.2551L25.6533 18.249Z" fill="#FDFA91"/>
</g>
<path d="M21.0048 20.6339L24.9008 19.5233C25.623 19.317 26.2662 20.027 25.9871 20.7249L24.4942 24.4934C24.385 24.7726 24.4214 25.0821 24.5852 25.3309L26.8427 28.6929C27.2615 29.3179 26.782 30.1493 26.0356 30.1007L21.9879 29.8459C21.6906 29.8277 21.4053 29.9551 21.2172 30.1918L18.717 33.3777C18.2558 33.9664 17.3152 33.7722 17.127 33.044L16.1197 29.1177C16.0469 28.8264 15.8345 28.5958 15.5553 28.4926L11.7503 27.0968C11.0464 26.8359 10.9432 25.8831 11.5744 25.4826L14.997 23.3101C15.2458 23.1523 15.4036 22.8792 15.4157 22.5819L15.5674 18.5342C15.5978 17.7877 16.4716 17.3933 17.0482 17.8727L20.1734 20.4579C20.404 20.646 20.7135 20.7128 20.9988 20.6339H21.0048Z" stroke="#FDFA91" stroke-width="0.56" stroke-miterlimit="10"/>
<g style="mix-blend-mode:overlay" opacity="0.5">
<path d="M21.6056 19.402C21.1262 19.5356 20.6165 19.4324 20.2341 19.1168L16.9936 16.4345C16.0287 15.6396 14.5722 16.295 14.5237 17.539L14.3659 21.7445C14.3477 22.2421 14.0868 22.6972 13.668 22.9643L10.118 25.2217C10.0391 25.2703 9.97837 25.337 9.91162 25.3977C11.0707 25.0397 13.7469 23.7896 14.4751 22.9157C15.0881 22.1875 14.9667 18.5343 15.0699 17.715C15.173 16.8958 15.8648 16.21 16.7933 16.8958C17.7218 17.5754 19.6273 19.6084 20.5618 19.845C21.5753 20.106 23.8267 18.9773 26.0781 18.1944C25.9385 18.1944 25.799 18.2126 25.6594 18.249L21.6117 19.402H21.6056Z" fill="white"/>
</g>
<g style="mix-blend-mode:multiply" opacity="0.8">
<path d="M27.4678 20.2517C27.5163 20.1243 27.5406 19.9969 27.5588 19.8755C26.6971 21.5565 25.3377 24.2569 25.2164 24.6696C25.0404 25.2765 25.7807 26.0714 26.5332 27.1456C27.7105 28.8387 27.9169 29.2938 27.5831 30.0706C27.2433 30.8534 25.8718 30.8898 24.4214 30.7138C22.9771 30.5379 21.9576 30.283 21.5935 30.8231C21.2354 31.3632 19.6151 33.2201 18.9476 34.1001C18.2801 34.9739 16.9147 34.7615 16.6112 33.4811C16.3078 32.2006 15.5371 29.2877 15.0941 29.13C14.7179 28.9965 11.0464 27.9041 9.88733 27.5582C10.033 27.6978 10.1968 27.8192 10.4092 27.8981L14.3598 29.3484C14.8271 29.5183 15.1791 29.9067 15.3004 30.3861L16.3503 34.4642C16.6598 35.6718 18.2255 35.9995 18.9962 35.0164L21.5935 31.703C21.8969 31.3146 22.3763 31.0962 22.8739 31.1265L27.0733 31.3874C28.3235 31.4663 29.1184 30.0827 28.4205 29.045L26.072 25.5495C25.7929 25.1369 25.7383 24.615 25.9203 24.1538L27.4678 20.2396V20.2517Z" fill="#FFCA02"/>
</g>
<path d="M54.1449 31.7027C54.4726 31.8604 54.8306 31.9272 55.2008 31.9029L59.297 31.648C59.4306 31.642 59.5701 31.6663 59.6915 31.7269C59.8007 31.7816 59.8978 31.8604 59.9767 31.9515L62.5073 35.1799C62.7136 35.4469 62.9746 35.6533 63.2719 35.7928C63.8484 36.0659 64.522 36.072 65.1046 35.7928C65.6811 35.5258 66.1059 35.01 66.2637 34.3849L67.2832 30.4101C67.35 30.1552 67.532 29.9489 67.7808 29.8578L71.6343 28.4439C72.405 28.1587 72.9391 27.479 73.024 26.6658C73.115 25.8466 72.7388 25.0698 72.0409 24.6268L68.5758 22.43C68.3513 22.2904 68.2178 22.0477 68.2056 21.7867L68.0539 17.6844C68.0236 16.8834 67.5563 16.1734 66.8402 15.8335C66.0816 15.4694 65.2017 15.5786 64.5524 16.1127L61.3907 18.7282C61.1904 18.8981 60.9173 18.9527 60.6625 18.8799L56.7179 17.7572C55.929 17.5327 55.0976 17.7694 54.5454 18.3823C53.9932 18.9891 53.8415 19.8448 54.1449 20.6034L55.6559 24.4205C55.753 24.6632 55.7227 24.9423 55.5771 25.1608L53.2892 28.5652C52.9373 29.0932 52.8341 29.7122 52.9979 30.319C53.1618 30.9259 53.5805 31.4296 54.1449 31.6966V31.7027Z" fill="#E07906"/>
<path d="M60.4319 19.4017L56.3842 18.2487C55.1826 17.9089 54.1085 19.0922 54.5697 20.2513L56.1172 24.1655C56.2992 24.6267 56.2446 25.1486 55.9654 25.5613L53.6169 29.0567C52.9191 30.0944 53.714 31.4781 54.9641 31.3992L59.1635 31.1382C59.6612 31.1079 60.1406 31.3203 60.444 31.7147L63.0413 35.0281C63.812 36.0112 65.3777 35.6835 65.6872 34.4759L66.737 30.3979C66.8584 29.9185 67.2104 29.5301 67.6777 29.3602L71.6283 27.9098C72.7995 27.4789 72.9755 25.889 71.9195 25.2214L68.3695 22.964C67.9507 22.6969 67.6898 22.2418 67.6716 21.7442L67.5138 17.5387C67.4653 16.2886 66.0088 15.6393 65.0439 16.4342L61.8033 19.1165C61.421 19.4321 60.9052 19.5413 60.4319 19.4017Z" fill="url(#paint2_linear_9074_25424)"/>
<g style="mix-blend-mode:overlay" opacity="0.4">
<path d="M56.3841 18.249L60.4318 19.402C60.9112 19.5356 61.4209 19.4324 61.8033 19.1168L65.0438 16.4345C66.0087 15.6396 67.4652 16.295 67.5137 17.539L67.6715 21.7445C67.6897 22.2421 67.9507 22.6972 68.3694 22.9643L71.9195 25.2217C72.9754 25.8893 72.8055 27.4792 71.6282 27.9101L67.6776 29.3605C67.3074 29.494 67.0161 29.7671 66.8462 30.113C62.7864 27.6977 58.0529 23.9474 55.0612 18.516C55.4131 18.243 55.8804 18.1155 56.378 18.2551L56.3841 18.249Z" fill="#FDFA91"/>
</g>
<path d="M61.0327 20.6339L57.1367 19.5233C56.4145 19.317 55.7713 20.027 56.0504 20.7249L57.5433 24.4934C57.6525 24.7726 57.6161 25.0821 57.4523 25.3309L55.1948 28.6929C54.776 29.3179 55.2555 30.1493 56.0019 30.1007L60.0496 29.8459C60.3469 29.8277 60.6322 29.9551 60.8203 30.1918L63.3205 33.3777C63.7817 33.9664 64.7223 33.7722 64.9105 33.044L65.9178 29.1177C65.9906 28.8264 66.203 28.5958 66.4822 28.4926L70.2872 27.0968C70.9911 26.8359 71.0943 25.8831 70.4631 25.4826L67.0405 23.3101C66.7917 23.1523 66.6339 22.8792 66.6218 22.5819L66.4701 18.5342C66.4397 17.7877 65.5659 17.3933 64.9893 17.8727L61.8641 20.4579C61.6335 20.646 61.324 20.7128 61.0387 20.6339H61.0327Z" stroke="#FDFA91" stroke-width="0.56" stroke-miterlimit="10"/>
<g style="mix-blend-mode:overlay" opacity="0.5">
<path d="M60.4318 19.402C60.9113 19.5356 61.421 19.4324 61.8033 19.1168L65.0439 16.4345C66.0088 15.6396 67.4652 16.295 67.5138 17.539L67.6716 21.7445C67.6898 22.2421 67.9507 22.6972 68.3694 22.9643L71.9195 25.2217C71.9984 25.2703 72.0591 25.337 72.1259 25.3977C70.9668 25.0397 68.2906 23.7896 67.5623 22.9157C66.9494 22.1875 67.0708 18.5343 66.9676 17.715C66.8645 16.8958 66.1726 16.21 65.2442 16.8958C64.3157 17.5754 62.4102 19.6084 61.4756 19.845C60.4622 20.106 58.2108 18.9773 55.9594 18.1944C56.0989 18.1944 56.2385 18.2126 56.3781 18.249L60.4258 19.402H60.4318Z" fill="white"/>
</g>
<g style="mix-blend-mode:multiply" opacity="0.8">
<path d="M54.5697 20.2517C54.5211 20.1243 54.4969 19.9969 54.4787 19.8755C55.3404 21.5565 56.6997 24.2569 56.8211 24.6696C56.9971 25.2765 56.2567 26.0714 55.5042 27.1456C54.3269 28.8387 54.1206 29.2938 54.4544 30.0706C54.7942 30.8534 56.1657 30.8898 57.6161 30.7138C59.0665 30.5379 60.0799 30.283 60.444 30.8231C60.802 31.3632 62.4223 33.2201 63.0899 34.1001C63.7574 34.9739 65.1289 34.7615 65.4262 33.4811C65.7297 32.2006 66.5004 29.2877 66.9434 29.13C67.3196 28.9965 70.9911 27.9041 72.1502 27.5582C72.0045 27.6978 71.8407 27.8192 71.6283 27.8981L67.6777 29.3484C67.2104 29.5183 66.8584 29.9067 66.737 30.3861L65.6872 34.4642C65.3777 35.6718 63.812 35.9995 63.0413 35.0164L60.444 31.703C60.1406 31.3146 59.6612 31.0962 59.1635 31.1265L54.9641 31.3874C53.714 31.4663 52.9191 30.0827 53.6169 29.045L55.9654 25.5495C56.2446 25.1369 56.2992 24.615 56.1172 24.1538L54.5697 20.2396V20.2517Z" fill="#FFCA02"/>
</g>
<path d="M41.3691 21.7889C40.7902 21.7889 40.2824 21.6941 39.8457 21.5045C39.4123 21.3149 39.0687 21.0475 38.8148 20.7022C38.5609 20.3535 38.4154 19.9473 38.3781 19.4835L38.373 19.4225H40.1503L40.1605 19.4784C40.1944 19.7221 40.3162 19.9253 40.5261 20.0877C40.736 20.2469 41.0153 20.3264 41.364 20.3264C41.5942 20.3264 41.7922 20.2875 41.9581 20.2096C42.1274 20.1284 42.2577 20.0183 42.3491 19.8795C42.4405 19.7408 42.4862 19.5816 42.4862 19.4022V19.3921C42.4862 19.0942 42.3762 18.8673 42.1562 18.7116C41.9361 18.5559 41.623 18.478 41.2167 18.478H40.4246V17.2136H41.2066C41.4469 17.2136 41.6517 17.1781 41.821 17.107C41.9937 17.0359 42.1257 16.936 42.2171 16.8074C42.3119 16.6787 42.3593 16.5298 42.3593 16.3605V16.3503C42.3593 16.1709 42.3187 16.0169 42.2374 15.8882C42.1595 15.7562 42.0444 15.6563 41.8921 15.5886C41.7431 15.5175 41.5637 15.482 41.3538 15.482C41.1406 15.482 40.9527 15.5192 40.7902 15.5937C40.6311 15.6648 40.5041 15.7681 40.4093 15.9035C40.3179 16.0355 40.2621 16.1912 40.2418 16.3706L40.2367 16.4214H38.5457L38.5508 16.3503C38.5846 15.8899 38.72 15.4922 38.957 15.157C39.1974 14.8185 39.5207 14.5578 39.9269 14.375C40.3365 14.1888 40.8122 14.0957 41.3538 14.0957C41.9124 14.0957 42.3965 14.1803 42.8061 14.3496C43.2158 14.5155 43.5323 14.7474 43.7557 15.0453C43.9792 15.3432 44.0909 15.6919 44.0909 16.0914V16.1015C44.0909 16.4096 44.0215 16.6787 43.8827 16.9089C43.7473 17.1357 43.5645 17.3219 43.3343 17.4675C43.1074 17.6131 42.8552 17.7146 42.5776 17.7722V17.8077C43.1294 17.8619 43.5678 18.0362 43.8928 18.3308C44.2178 18.6253 44.3803 19.0146 44.3803 19.4987V19.5089C44.3803 19.9693 44.2568 20.3721 44.0096 20.7174C43.7625 21.0593 43.4138 21.3234 42.9636 21.5096C42.5133 21.6958 41.9818 21.7889 41.3691 21.7889Z" fill="#7A420A"/>
<defs>
<linearGradient id="paint0_linear_9074_25424" x1="40.6182" y1="28.6081" x2="41.2493" y2="7.57466" gradientUnits="userSpaceOnUse">
<stop stop-color="#F59300"/>
<stop offset="0.19" stop-color="#F59B03"/>
<stop offset="0.48" stop-color="#F8B10E"/>
<stop offset="0.84" stop-color="#FCD51F"/>
<stop offset="1" stop-color="#FFE828"/>
</linearGradient>
<linearGradient id="paint1_linear_9074_25424" x1="22.4855" y1="32.4915" x2="16.593" y2="18.6068" gradientUnits="userSpaceOnUse">
<stop stop-color="#F59300"/>
<stop offset="0.26" stop-color="#F69B00"/>
<stop offset="0.67" stop-color="#FAB100"/>
<stop offset="1" stop-color="#FFC800"/>
</linearGradient>
<linearGradient id="paint2_linear_9074_25424" x1="59.558" y1="32.4915" x2="65.4445" y2="18.6068" gradientUnits="userSpaceOnUse">
<stop stop-color="#F59300"/>
<stop offset="0.26" stop-color="#F69B00"/>
<stop offset="0.67" stop-color="#FAB100"/>
<stop offset="1" stop-color="#FFC800"/>
</linearGradient>
</defs>
</svg>
