<svg width="156" height="78" viewBox="0 0 156 78" fill="none" xmlns="http://www.w3.org/2000/svg">
<path opacity="0.12" fill-rule="evenodd" clip-rule="evenodd" d="M156 78H0C0 34.9218 34.9218 0 78 0C121.078 0 156 34.9218 156 78Z" fill="url(#paint0_linear_8788_2979)"/>
<rect x="48.5" y="18.5" width="59" height="59" rx="14.5" fill="#FF6274" stroke="url(#paint1_linear_8788_2979)"/>
<mask id="mask0_8788_2979" style="mask-type:alpha" maskUnits="userSpaceOnUse" x="48" y="18" width="60" height="60">
<rect x="48" y="18" width="60" height="60" rx="15" fill="#407BED"/>
</mask>
<g mask="url(#mask0_8788_2979)">
<g filter="url(#filter0_f_8788_2979)">
<rect x="107.388" y="75.551" width="6.12245" height="61.8367" transform="rotate(90 107.388 75.551)" fill="white"/>
</g>
<g filter="url(#filter1_f_8788_2979)">
<ellipse cx="66.3673" cy="77.3878" rx="14.0816" ry="1.22449" fill="white"/>
</g>
<g filter="url(#filter2_f_8788_2979)">
<ellipse cx="93.9179" cy="77.3878" rx="11.0204" ry="1.22449" fill="white"/>
</g>
<g filter="url(#filter3_f_8788_2979)">
<ellipse cx="65.1931" cy="63.6761" rx="17.0241" ry="25.5222" transform="rotate(121.815 65.1931 63.6761)" fill="white" fill-opacity="0.4"/>
</g>
<g filter="url(#filter4_f_8788_2979)">
<rect x="48" y="18" width="60" height="60" rx="20" stroke="url(#paint2_linear_8788_2979)" stroke-opacity="0.5" stroke-width="10"/>
</g>
<g filter="url(#filter5_f_8788_2979)">
<path d="M65.5991 17.9652C61.3134 18.9856 48.9184 22.2857 48.3062 40.0409C44.3266 27.796 49.191 14.2918 65.5991 17.9652Z" fill="white" fill-opacity="0.84"/>
</g>
<g filter="url(#filter6_d_8788_2979)">
<path d="M78 36.125C79.0355 36.125 79.875 36.9645 79.875 38V50.5C79.875 51.5355 79.0355 52.375 78 52.375C76.9645 52.375 76.125 51.5355 76.125 50.5V38C76.125 36.9645 76.9645 36.125 78 36.125Z" fill="white"/>
<path d="M78 60.5C79.3807 60.5 80.5 59.3807 80.5 58C80.5 56.6193 79.3807 55.5 78 55.5C76.6193 55.5 75.5 56.6193 75.5 58C75.5 59.3807 76.6193 60.5 78 60.5Z" fill="white"/>
</g>
</g>
<defs>
<filter id="filter0_f_8788_2979" x="30.5508" y="60.551" width="91.8369" height="36.1224" filterUnits="userSpaceOnUse" color-interpolation-filters="sRGB">
<feFlood flood-opacity="0" result="BackgroundImageFix"/>
<feBlend mode="normal" in="SourceGraphic" in2="BackgroundImageFix" result="shape"/>
<feGaussianBlur stdDeviation="7.5" result="effect1_foregroundBlur_8788_2979"/>
</filter>
<filter id="filter1_f_8788_2979" x="46.2856" y="70.1633" width="40.1631" height="14.449" filterUnits="userSpaceOnUse" color-interpolation-filters="sRGB">
<feFlood flood-opacity="0" result="BackgroundImageFix"/>
<feBlend mode="normal" in="SourceGraphic" in2="BackgroundImageFix" result="shape"/>
<feGaussianBlur stdDeviation="3" result="effect1_foregroundBlur_8788_2979"/>
</filter>
<filter id="filter2_f_8788_2979" x="76.8975" y="70.1633" width="34.041" height="14.449" filterUnits="userSpaceOnUse" color-interpolation-filters="sRGB">
<feFlood flood-opacity="0" result="BackgroundImageFix"/>
<feBlend mode="normal" in="SourceGraphic" in2="BackgroundImageFix" result="shape"/>
<feGaussianBlur stdDeviation="3" result="effect1_foregroundBlur_8788_2979"/>
</filter>
<filter id="filter3_f_8788_2979" x="1.71582" y="3.91992" width="126.955" height="119.512" filterUnits="userSpaceOnUse" color-interpolation-filters="sRGB">
<feFlood flood-opacity="0" result="BackgroundImageFix"/>
<feBlend mode="normal" in="SourceGraphic" in2="BackgroundImageFix" result="shape"/>
<feGaussianBlur stdDeviation="20" result="effect1_foregroundBlur_8788_2979"/>
</filter>
<filter id="filter4_f_8788_2979" x="33" y="3" width="90" height="90" filterUnits="userSpaceOnUse" color-interpolation-filters="sRGB">
<feFlood flood-opacity="0" result="BackgroundImageFix"/>
<feBlend mode="normal" in="SourceGraphic" in2="BackgroundImageFix" result="shape"/>
<feGaussianBlur stdDeviation="5" result="effect1_foregroundBlur_8788_2979"/>
</filter>
<filter id="filter5_f_8788_2979" x="40.9922" y="11.3513" width="30.6069" height="34.6896" filterUnits="userSpaceOnUse" color-interpolation-filters="sRGB">
<feFlood flood-opacity="0" result="BackgroundImageFix"/>
<feBlend mode="normal" in="SourceGraphic" in2="BackgroundImageFix" result="shape"/>
<feGaussianBlur stdDeviation="3" result="effect1_foregroundBlur_8788_2979"/>
</filter>
<filter id="filter6_d_8788_2979" x="71.5" y="34.125" width="13" height="32.375" filterUnits="userSpaceOnUse" color-interpolation-filters="sRGB">
<feFlood flood-opacity="0" result="BackgroundImageFix"/>
<feColorMatrix in="SourceAlpha" type="matrix" values="0 0 0 0 0 0 0 0 0 0 0 0 0 0 0 0 0 0 127 0" result="hardAlpha"/>
<feOffset dy="2"/>
<feGaussianBlur stdDeviation="2"/>
<feComposite in2="hardAlpha" operator="out"/>
<feColorMatrix type="matrix" values="0 0 0 0 0.839616 0 0 0 0 0.165395 0 0 0 0 0.242694 0 0 0 1 0"/>
<feBlend mode="normal" in2="BackgroundImageFix" result="effect1_dropShadow_8788_2979"/>
<feBlend mode="normal" in="SourceGraphic" in2="effect1_dropShadow_8788_2979" result="shape"/>
</filter>
<linearGradient id="paint0_linear_8788_2979" x1="78" y1="0" x2="78" y2="78" gradientUnits="userSpaceOnUse">
<stop stop-color="#FF6274"/>
<stop offset="1" stop-color="#FF6274" stop-opacity="0"/>
</linearGradient>
<linearGradient id="paint1_linear_8788_2979" x1="78" y1="18" x2="78" y2="78" gradientUnits="userSpaceOnUse">
<stop stop-color="#FF6274"/>
<stop offset="1" stop-color="#FF6274" stop-opacity="0"/>
</linearGradient>
<linearGradient id="paint2_linear_8788_2979" x1="98.2041" y1="21.0612" x2="61.1633" y2="76.4694" gradientUnits="userSpaceOnUse">
<stop stop-color="white"/>
<stop offset="1" stop-color="white" stop-opacity="0.5"/>
</linearGradient>
</defs>
</svg>
