<svg width="16" height="16" viewBox="0 0 16 16" fill="none" xmlns="http://www.w3.org/2000/svg">
<path opacity="0.4" d="M4.55326 8.5C4.65326 10.5533 5.3466 12.6467 6.55326 14.5067C3.7266 13.88 1.57327 11.46 1.35327 8.5H4.55326ZM6.55326 1.49333C3.7266 2.12 1.57327 4.54 1.35327 7.5H4.55326C4.65326 5.44667 5.3466 3.35333 6.55326 1.49333ZM8.13328 1.33334H7.8666L7.66661 1.62C6.39994 3.42 5.65993 5.48667 5.55326 7.5H10.4466C10.3399 5.48667 9.59994 3.42 8.33327 1.62L8.13328 1.33334ZM5.55326 8.5C5.65993 10.5133 6.39994 12.58 7.66661 14.38L7.8666 14.6667H8.13328L8.33327 14.38C9.59994 12.58 10.3399 10.5133 10.4466 8.5H5.55326ZM11.4466 8.5C11.3466 10.5533 10.6533 12.6467 9.44662 14.5067C12.2733 13.88 14.4266 11.46 14.6466 8.5H11.4466ZM14.6466 7.5C14.4266 4.54 12.2733 2.12 9.44662 1.49333C10.6533 3.35333 11.3466 5.44667 11.4466 7.5H14.6466Z" fill="white"/>
</svg>
